<?xml version="1.0" encoding="UTF-8"?>
<svg version="1.1" xmlns="http://www.w3.org/2000/svg" width="379" height="283">
<path d="M0 0 C125.07 0 250.14 0 379 0 C379 93.39 379 186.78 379 283 C253.93 283 128.86 283 0 283 C0 189.61 0 96.22 0 0 Z " fill="#FEFEFE" transform="translate(0,0)"/>
<path d="M0 0 C70.29 0 140.58 0 213 0 C213 68.64 213 137.28 213 208 C142.71 208 72.42 208 0 208 C0 139.36 0 70.72 0 0 Z " fill="#F7F8F7" transform="translate(82,38)"/>
<path d="M0 0 C70.29 0 140.58 0 213 0 C213 68.64 213 137.28 213 208 C142.71 208 72.42 208 0 208 C0 139.36 0 70.72 0 0 Z M29 11 C29 58.85 29 106.7 29 156 C80.15 156 131.3 156 184 156 C184 108.15 184 60.3 184 11 C132.85 11 81.7 11 29 11 Z " fill="#030303" transform="translate(82,38)"/>
<path d="M0 0 C21.12 0 42.24 0 64 0 C64 43.89 64 87.78 64 133 C22 133 22 133 14 128 C10.48078295 123.16022569 10.77111079 119.11333518 11.3125 113.4375 C11.4262571 111.82694751 11.53822664 110.2162678 11.6484375 108.60546875 C11.85311825 105.87806973 12.06858346 103.15197483 12.2890625 100.42578125 C12.85158439 88.39077355 8.01118964 78.92112409 0.34765625 69.91015625 C-1 68 -1 68 -1.4375 64.4375 C-1.293125 63.633125 -1.14875 62.82875 -1 62 C-0.0409375 61.8453125 -0.0409375 61.8453125 0.9375 61.6875 C1.9584375 61.3471875 1.9584375 61.3471875 3 61 C4.06385483 57.80843552 4.16677982 55.41502524 4.1875 52.0625 C4.20167969 51.02222656 4.21585938 49.98195312 4.23046875 48.91015625 C4.00392282 46.04953387 3.47733619 44.42329849 2 42 C5.68357232 40.77214256 6.71627756 41.73562702 10.09375 43.28125 C13.19756406 44.45154055 15.74539244 44.43812025 19 44 C21.69427391 41.49153809 22.76237062 38.42728137 24 35 C24.66 35 25.32 35 26 35 C25.773125 33.7625 25.54625 32.525 25.3125 31.25 C24.81121239 28.51570396 24.86085927 27.30357978 26.03125 24.75 C28.97854203 22.13018486 31.32564089 22.6082804 35.1875 22.75 C37.09595703 22.80414063 37.09595703 22.80414063 39.04296875 22.859375 C40.01878906 22.90578125 40.99460938 22.9521875 42 23 C42 22.34 42 21.68 42 21 C42.99 21 43.98 21 45 21 C44.34 19.68 43.68 18.36 43 17 C38.42847075 16.97514018 33.85698153 16.95706474 29.28540039 16.94506836 C27.73265904 16.94006316 26.17992234 16.93325699 24.62719727 16.92456055 C22.38556768 16.91232693 20.14400082 16.90673343 17.90234375 16.90234375 C17.21663803 16.89718246 16.53093231 16.89202118 15.82444763 16.88670349 C11.43608179 16.8862014 7.31598155 17.29089331 3 18 C3.875 13.125 3.875 13.125 5 12 C5.07179964 10.48071962 5.08392007 8.95832518 5.0625 7.4375 C5.05347656 6.61121094 5.04445312 5.78492188 5.03515625 4.93359375 C5.02355469 4.29550781 5.01195312 3.65742187 5 3 C2.525 2.01 2.525 2.01 0 1 C0 0.67 0 0.34 0 0 Z " fill="#FDA603" transform="translate(196,54)"/>
<path d="M0 0 C23.1 0 46.2 0 70 0 C68.68 1.98 67.36 3.96 66 6 C65.32298486 8.72497193 65.32298486 8.72497193 65.25 11.375 C65.19328125 12.24898437 65.1365625 13.12296875 65.078125 14.0234375 C65.05234375 14.67570312 65.0265625 15.32796875 65 16 C63.948125 15.896875 62.89625 15.79375 61.8125 15.6875 C57.88390478 15.65064764 57.88390478 15.65064764 55.125 18.3125 C51.284442 23.1696763 51.65056243 28.18911501 51.28125 34.1640625 C51 37 51 37 50 38 C48.33382885 38.04063832 46.66611905 38.042721 45 38 C45.020625 39.19625 45.04125 40.3925 45.0625 41.625 C45.06882571 45.18004869 44.69888875 48.50555624 44 52 C45.32 52.33 46.64 52.66 48 53 C47.01 53.33 46.02 53.66 45 54 C45.495 61.425 45.495 61.425 46 69 C45.34 69 44.68 69 44 69 C44.24943359 70.72283203 44.24943359 70.72283203 44.50390625 72.48046875 C46.01400409 84.72006748 44.73543193 94.52879571 38 105 C36.15718343 109.56316483 35.72557539 112.92097229 35 118 C34.01 122.95 33.02 127.9 32 133 C21.44 133 10.88 133 0 133 C0 89.11 0 45.22 0 0 Z " fill="#1E2D47" transform="translate(117,54)"/>
<path d="M0 0 C0.66 0 1.32 0 2 0 C2.33 0.66 2.66 1.32 3 2 C3.62003906 2.2784375 4.24007812 2.556875 4.87890625 2.84375 C8.2206371 4.66539334 9.46524007 7.68965985 11.33984375 10.90625 C13.32115784 13.40503671 14.99394737 14.06410544 18 15 C17.97679687 16.25296875 17.95359375 17.5059375 17.9296875 18.796875 C17.91092573 20.4479107 17.89272597 22.09895285 17.875 23.75 C17.85824219 24.575 17.84148437 25.4 17.82421875 26.25 C17.81777344 27.04921875 17.81132812 27.8484375 17.8046875 28.671875 C17.79421387 29.4050293 17.78374023 30.13818359 17.77294922 30.89355469 C18.03319029 33.30792024 18.86141535 34.87421763 20 37 C20.265625 39.33203125 20.265625 39.33203125 20.25 41.8125 C20.25773437 43.02873047 20.25773437 43.02873047 20.265625 44.26953125 C19.93548865 47.66313869 18.96412442 50.73590747 18 54 C12.60653012 54.02464849 7.21309275 54.04283531 1.81958008 54.05493164 C-0.01668875 54.05997231 -1.85295354 54.06680477 -3.68920898 54.07543945 C-6.32276401 54.08751672 -8.95626616 54.09323081 -11.58984375 54.09765625 C-12.82890724 54.10539818 -12.82890724 54.10539818 -14.09300232 54.11329651 C-16.06236368 54.11349205 -18.03161614 54.06204152 -20 54 C-21.55985209 52.44014791 -21.24452344 50.91093902 -21.3125 48.75 C-21.26167682 44.12509066 -20.06919963 42.49547736 -17 39 C-14.20143015 33.22165793 -12.38894056 27.25023252 -11 21 C-10.34 21 -9.68 21 -9 21 C-8.87625 20.360625 -8.7525 19.72125 -8.625 19.0625 C-8.41875 18.381875 -8.2125 17.70125 -8 17 C-7.34 16.67 -6.68 16.34 -6 16 C-5.45767666 14.11383996 -5.45767666 14.11383996 -5.125 11.875 C-4.20430075 7.23437877 -2.53588408 3.97288506 0 0 Z " fill="#212F49" transform="translate(179,133)"/>
<path d="M0 0 C1.00675781 -0.00064453 2.01351562 -0.00128906 3.05078125 -0.00195312 C4.09621094 0.01802734 5.14164063 0.03800781 6.21875 0.05859375 C7.26417969 0.05150391 8.30960938 0.04441406 9.38671875 0.03710938 C16.96868246 0.10021151 16.96868246 0.10021151 20.02001953 1.71069336 C22.25132401 4.0558399 22.20936325 5.2934399 22.1796875 8.49609375 C22.17582031 9.46546875 22.17195313 10.43484375 22.16796875 11.43359375 C22.14347656 12.44421875 22.11898438 13.45484375 22.09375 14.49609375 C22.09246094 15.50671875 22.09117187 16.51734375 22.08984375 17.55859375 C21.99989421 25.07437743 21.99989421 25.07437743 19.71875 28.49609375 C15.13834914 30.02289404 10.5796026 29.7624853 5.78125 29.80859375 C4.77900391 29.83759766 3.77675781 29.86660156 2.74414062 29.89648438 C-4.37942381 29.95826312 -4.37942381 29.95826312 -7.94140625 28.1328125 C-10.10681807 23.87143355 -9.85789869 19.70360091 -9.78125 14.99609375 C-9.79671875 14.04605469 -9.8121875 13.09601563 -9.828125 12.1171875 C-9.82296875 11.20066406 -9.8178125 10.28414062 -9.8125 9.33984375 C-9.80798828 8.50646484 -9.80347656 7.67308594 -9.79882812 6.81445312 C-8.60133433 1.45058468 -5.11848238 -0.01034128 0 0 Z " fill="#F8F8F8" transform="translate(243.28125,203.50390625)"/>
<path d="M0 0 C1.05509766 -0.00386719 2.11019531 -0.00773438 3.19726562 -0.01171875 C4.29876953 -0.00011719 5.40027344 0.01148438 6.53515625 0.0234375 C7.63279297 0.01183594 8.73042969 0.00023437 9.86132812 -0.01171875 C10.91771484 -0.00785156 11.97410156 -0.00398437 13.0625 0 C14.51064087 0.00507568 14.51064087 0.00507568 15.98803711 0.01025391 C19.03042584 0.46281243 20.43697076 1.22658979 22.59765625 3.3984375 C22.59765625 4.3884375 22.59765625 5.3784375 22.59765625 6.3984375 C14.67765625 6.3984375 6.75765625 6.3984375 -1.40234375 6.3984375 C-1.40234375 8.0484375 -1.40234375 9.6984375 -1.40234375 11.3984375 C-0.82266846 11.37749023 -0.24299316 11.35654297 0.35424805 11.33496094 C2.99770549 11.25146943 5.64088505 11.19967597 8.28515625 11.1484375 C9.65317383 11.09816406 9.65317383 11.09816406 11.04882812 11.046875 C15.29963291 10.98504511 17.91885134 11.0261621 21.703125 13.1015625 C23.89986549 15.76482726 24.27476321 16.98022077 24.22265625 20.3984375 C24.23554688 21.2440625 24.2484375 22.0896875 24.26171875 22.9609375 C23.59765625 25.3984375 23.59765625 25.3984375 21.78125 27.6796875 C16.95529289 30.2851122 12.43177335 29.97893396 7.03515625 29.8984375 C5.4737793 29.92164063 5.4737793 29.92164063 3.88085938 29.9453125 C2.87861328 29.94015625 1.87636719 29.935 0.84375 29.9296875 C-0.06705322 29.92517578 -0.97785645 29.92066406 -1.91625977 29.91601562 C-5.14219565 29.24440764 -6.3714538 27.93905148 -8.40234375 25.3984375 C-8.40234375 24.7384375 -8.40234375 24.0784375 -8.40234375 23.3984375 C-0.15234375 23.3984375 8.09765625 23.3984375 16.59765625 23.3984375 C16.59765625 21.7484375 16.59765625 20.0984375 16.59765625 18.3984375 C16.01274414 18.40891113 15.42783203 18.41938477 14.82519531 18.43017578 C12.16605962 18.47184014 9.50699272 18.49779651 6.84765625 18.5234375 C5.92726562 18.54019531 5.006875 18.55695313 4.05859375 18.57421875 C2.72441406 18.58388672 2.72441406 18.58388672 1.36328125 18.59375 C0.13786621 18.60946045 0.13786621 18.60946045 -1.11230469 18.62548828 C-3.66056794 18.37283531 -5.24354194 17.75978485 -7.40234375 16.3984375 C-8.69238671 13.81835158 -8.60644599 11.84102176 -8.65234375 8.9609375 C-8.678125 7.99285156 -8.70390625 7.02476562 -8.73046875 6.02734375 C-8.40234375 3.3984375 -8.40234375 3.3984375 -7.21948242 1.7590332 C-4.74196565 -0.09602537 -3.07602732 0.01079398 0 0 Z " fill="#EFEEEF" transform="translate(157.40234375,203.6015625)"/>
<path d="M0 0 C1.14533203 -0.01998047 2.29066406 -0.03996094 3.47070312 -0.06054688 C4.57220703 -0.05990234 5.67371094 -0.05925781 6.80859375 -0.05859375 C8.31957642 -0.06137329 8.31957642 -0.06137329 9.86108398 -0.06420898 C13.25448789 0.5660165 14.46017979 1.75382677 16.5625 4.4375 C16.5625 5.0975 16.5625 5.7575 16.5625 6.4375 C7.9825 6.4375 -0.5975 6.4375 -9.4375 6.4375 C-9.4375 12.3775 -9.4375 18.3175 -9.4375 24.4375 C-2.8375 24.4375 3.7625 24.4375 10.5625 24.4375 C10.5625 22.1275 10.5625 19.8175 10.5625 17.4375 C9.44101563 17.48970703 9.44101563 17.48970703 8.296875 17.54296875 C7.31203125 17.57003906 6.3271875 17.59710938 5.3125 17.625 C4.33796875 17.65980469 3.3634375 17.69460937 2.359375 17.73046875 C-0.83456651 17.39590784 -2.16630304 16.67084367 -4.4375 14.4375 C-4.4375 13.7775 -4.4375 13.1175 -4.4375 12.4375 C2.4925 12.4375 9.4225 12.4375 16.5625 12.4375 C16.9330953 25.90246272 16.9330953 25.90246272 15.39550781 28.12231445 C12.85305905 29.94652483 11.05274767 29.82547419 7.94140625 29.8359375 C6.84119141 29.83980469 5.74097656 29.84367187 4.60742188 29.84765625 C3.45822266 29.83605469 2.30902344 29.82445312 1.125 29.8125 C-0.59299805 29.82990234 -0.59299805 29.82990234 -2.34570312 29.84765625 C-3.99795898 29.84185547 -3.99795898 29.84185547 -5.68359375 29.8359375 C-6.69091553 29.83255371 -7.6982373 29.82916992 -8.73608398 29.82568359 C-11.89751135 29.37139805 -13.26558534 28.7781933 -15.4375 26.4375 C-15.93920898 24.03320312 -15.93920898 24.03320312 -15.93359375 21.21875 C-15.93423828 20.20425781 -15.93488281 19.18976563 -15.93554688 18.14453125 C-15.91556641 17.08621094 -15.89558594 16.02789062 -15.875 14.9375 C-15.88208984 13.87917969 -15.88917969 12.82085937 -15.89648438 11.73046875 C-15.83298897 4.04264083 -15.83298897 4.04264083 -14.26171875 1.63842773 C-10.23719077 -1.01101728 -4.65160069 -0.02869748 0 0 Z " fill="#EFEFEF" transform="translate(211.4375,203.5625)"/>
<path d="M0 0 C1.04542969 -0.01998047 2.09085938 -0.03996094 3.16796875 -0.06054688 C4.17472656 -0.05990234 5.18148437 -0.05925781 6.21875 -0.05859375 C7.13591797 -0.06044678 8.05308594 -0.0622998 8.99804688 -0.06420898 C12.24459342 0.58681103 13.46271182 1.88284785 15.5 4.4375 C15.5 5.0975 15.5 5.7575 15.5 6.4375 C7.58 6.4375 -0.34 6.4375 -8.5 6.4375 C-8.5 12.0475 -8.5 17.6575 -8.5 23.4375 C-0.58 23.4375 7.34 23.4375 15.5 23.4375 C13.5 27.4375 13.5 27.4375 10.5 29.4375 C6.86863607 29.87178132 3.21703283 29.76170574 -0.4375 29.75 C-1.94086914 29.77416992 -1.94086914 29.77416992 -3.47460938 29.79882812 C-4.44076172 29.79947266 -5.40691406 29.80011719 -6.40234375 29.80078125 C-7.72480103 29.80525269 -7.72480103 29.80525269 -9.07397461 29.80981445 C-12.07557762 29.34916792 -13.40765186 28.63829392 -15.5 26.4375 C-16.01757812 24.03320312 -16.01757812 24.03320312 -16.03125 21.21875 C-16.03640625 20.20425781 -16.0415625 19.18976563 -16.046875 18.14453125 C-16.03140625 17.08621094 -16.0159375 16.02789062 -16 14.9375 C-16.01546875 13.87917969 -16.0309375 12.82085937 -16.046875 11.73046875 C-16.04171875 10.71597656 -16.0365625 9.70148438 -16.03125 8.65625 C-16.02673828 7.72748047 -16.02222656 6.79871094 -16.01757812 5.84179688 C-15.5 3.4375 -15.5 3.4375 -13.796875 1.63842773 C-9.47741581 -0.62001399 -4.77348636 -0.0323726 0 0 Z " fill="#F9F9F9" transform="translate(127.5,203.5625)"/>
<path d="M0 0 C0.33 0 0.66 0 1 0 C1 42.9 1 85.8 1 130 C0.34 130 -0.32 130 -1 130 C-1.495 130.99 -1.495 130.99 -2 132 C-2.04667407 115.08465609 -2.08196626 98.1693322 -2.10362434 81.25393867 C-2.11394684 73.40022761 -2.12802571 65.54655651 -2.15087891 57.69287109 C-2.17078306 50.84940085 -2.18370935 44.00595954 -2.18817699 37.16246116 C-2.19078943 33.53724772 -2.19694987 29.91211705 -2.21146011 26.28693008 C-2.22750873 22.24479718 -2.22798161 18.20280916 -2.22705078 14.16064453 C-2.23424133 12.95223907 -2.24143188 11.74383362 -2.24884033 10.49880981 C-2.246091 9.40222046 -2.24334167 8.3056311 -2.24050903 7.17581177 C-2.24235262 6.21899065 -2.24419621 5.26216953 -2.24609566 4.27635384 C-2 2 -2 2 0 0 Z " fill="#FEFCFD" transform="translate(264,56)"/>
<path d="M0 0 C6.6 0 13.2 0 20 0 C20 6.27 20 12.54 20 19 C13.4 19 6.8 19 0 19 C0 12.73 0 6.46 0 0 Z " fill="#0D0D0D" transform="translate(240,209)"/>
<path d="M0 0 C1.32 0 2.64 0 4 0 C4 0.66 4 1.32 4 2 C3.34 2 2.68 2 2 2 C2.00092179 2.67937087 2.00184359 3.35874174 2.00279331 4.05869961 C2.02484812 20.56585631 2.04141135 37.07300837 2.05181217 53.58017635 C2.05697522 61.562815 2.06401809 69.54544383 2.07543945 77.52807617 C2.08538602 84.48323799 2.09185336 91.43839269 2.09408849 98.39356142 C2.09539565 102.07851927 2.09848179 105.76345678 2.10573006 109.44840813 C2.1137434 113.55537708 2.11399116 117.66231037 2.11352539 121.76928711 C2.11712067 122.99998932 2.12071594 124.23069153 2.12442017 125.49868774 C2.1230455 126.61073074 2.12167084 127.72277374 2.12025452 128.86851501 C2.12117631 129.84100661 2.1220981 130.81349821 2.12304783 131.81545925 C2 134 2 134 1 135 C-0.38160115 135.0927833 -1.76788038 135.11747043 -3.15258789 135.11352539 C-4.03342545 135.11344986 -4.914263 135.11337433 -5.8217926 135.11329651 C-6.77907761 135.10813522 -7.73636261 135.10297394 -8.72265625 135.09765625 C-9.69786728 135.0962413 -10.67307831 135.09482635 -11.67784119 135.09336853 C-14.80609143 135.08775133 -17.93427123 135.07519593 -21.0625 135.0625 C-23.17773334 135.05748722 -25.29296781 135.05292393 -27.40820312 135.04882812 C-32.60549296 135.03777631 -37.80274145 135.02102146 -43 135 C-43.33 133.68 -43.66 132.36 -44 131 C-43.34 131.33 -42.68 131.66 -42 132 C-28.14 132.33 -14.28 132.66 0 133 C0 89.11 0 45.22 0 0 Z " fill="#FEE8C1" transform="translate(260,54)"/>
<path d="M0 0 C21.12 0 42.24 0 64 0 C64 43.89 64 87.78 64 133 C50.14 133 36.28 133 22 133 C21.505 132.01 21.505 132.01 21 131 C34.86 131.33 48.72 131.66 63 132 C63 88.77 63 45.54 63 1 C44.19 1 25.38 1 6 1 C5.67 2.32 5.34 3.64 5 5 C5 4.34 5 3.68 5 3 C2.525 2.01 2.525 2.01 0 1 C0 0.67 0 0.34 0 0 Z " fill="#EFA52A" transform="translate(196,54)"/>
<path d="M0 0 C23.1 0 46.2 0 70 0 C68.68 1.32 67.36 2.64 66 4 C66 3.01 66 2.02 66 1 C44.55 1 23.1 1 1 1 C1.33 44.56 1.66 88.12 2 133 C1.34 133 0.68 133 0 133 C0 89.11 0 45.22 0 0 Z " fill="#353F50" transform="translate(117,54)"/>
<path d="M0 0 C2 2 2 2 2.25 5.5 C2 9 2 9 0 11 C-0.6425235 13.06874034 -0.6425235 13.06874034 -1 15 C-0.45939941 14.85127441 0.08120117 14.70254883 0.63818359 14.54931641 C8.65614415 12.62402107 16.46426935 12.98297441 24.625 13.375 C26.02469427 13.43338817 27.4244344 13.49068762 28.82421875 13.546875 C32.21675032 13.68725562 35.60841654 13.8385568 39 14 C39.33 13.01 39.66 12.02 40 11 C39.67 12.65 39.34 14.3 39 16 C33.17928378 16.02464638 27.35859766 16.0428343 21.5378418 16.05493164 C19.55606559 16.05997267 17.57429311 16.06680538 15.5925293 16.07543945 C12.75047891 16.08751515 9.90847753 16.09323045 7.06640625 16.09765625 C5.72891075 16.10539818 5.72891075 16.10539818 4.36439514 16.11329651 C2.24259399 16.11349177 0.1208922 16.0621003 -2 16 C-3 15 -3 15 -3.0625 12.4375 C-3.041875 11.633125 -3.02125 10.82875 -3 10 C-2.34 10 -1.68 10 -1 10 C-1 9.34 -1 8.68 -1 8 C-0.34 8 0.32 8 1 8 C0.67 5.36 0.34 2.72 0 0 Z " fill="#FEF0BA" transform="translate(200,57)"/>
<path d="M0 0 C0.33 0 0.66 0 1 0 C1.04241723 2.33294775 1.04092937 4.66702567 1 7 C0 8 0 8 -1.79066467 8.12025452 C-2.57009933 8.11803391 -3.349534 8.11581329 -4.15258789 8.11352539 C-5.03342545 8.11344986 -5.914263 8.11337433 -6.8217926 8.11329651 C-7.77907761 8.10813522 -8.73636261 8.10297394 -9.72265625 8.09765625 C-10.69786728 8.0962413 -11.67307831 8.09482635 -12.67784119 8.09336853 C-15.80609143 8.08775133 -18.93427123 8.07519593 -22.0625 8.0625 C-24.17773334 8.05748722 -26.29296781 8.05292393 -28.40820312 8.04882812 C-33.60549296 8.03777631 -38.80274145 8.02102146 -44 8 C-44.33 6.68 -44.66 5.36 -45 4 C-44.01 4.495 -44.01 4.495 -43 5 C-41.61182327 5.11726659 -40.21851286 5.17681406 -38.82568359 5.20532227 C-37.96494232 5.22526749 -37.10420105 5.24521271 -36.21737671 5.26576233 C-34.8220018 5.29083107 -34.8220018 5.29083107 -33.3984375 5.31640625 C-31.97103745 5.3475779 -31.97103745 5.3475779 -30.51480103 5.37937927 C-27.46827568 5.44488133 -24.42166257 5.5037628 -21.375 5.5625 C-19.31249084 5.60568459 -17.24999063 5.64929886 -15.1875 5.69335938 C-10.12509046 5.8005634 -5.06259245 5.90182902 0 6 C0 4.02 0 2.04 0 0 Z " fill="#FEF5C9" transform="translate(261,181)"/>
<path d="M0 0 C1.84933215 3.69866431 0.68936882 8.03460412 0 12 C-1.59816635 16.10957061 -3.29335911 19.52890607 -7 22 C-10.35987219 22.32805051 -13.6359322 22.23111916 -17 22 C-17 21.34 -17 20.68 -17 20 C-18.32 20 -19.64 20 -21 20 C-21.33 20.99 -21.66 21.98 -22 23 C-23.5625 21.1875 -23.5625 21.1875 -25 19 C-24.505 17.515 -24.505 17.515 -24 16 C-23.43152344 16.2165625 -22.86304688 16.433125 -22.27734375 16.65625 C-17.41863905 18.40830378 -13.23183756 19.73245726 -8 19 C-5.30572609 16.49153809 -4.23762938 13.42728137 -3 10 C-2.34 10 -1.68 10 -1 10 C-1.20625 8.72125 -1.4125 7.4425 -1.625 6.125 C-1.9765625 3.9453125 -1.9765625 3.9453125 -2 2 C-1.34 1.34 -0.68 0.68 0 0 Z " fill="#EEAC2C" transform="translate(223,79)"/>
<path d="M0 0 C21.12 0 42.24 0 64 0 C64 0.33 64 0.66 64 1 C44.86 1 25.72 1 6 1 C5.67 2.32 5.34 3.64 5 5 C5 4.34 5 3.68 5 3 C2.525 2.01 2.525 2.01 0 1 C0 0.67 0 0.34 0 0 Z " fill="#E9B23B" transform="translate(196,54)"/>
<path d="M0 0 C0.33 0 0.66 0 1 0 C1 2.97 1 5.94 1 9 C2.65 8.67 4.3 8.34 6 8 C6 8.99 6 9.98 6 11 C3.03 11.66 0.06 12.32 -3 13 C-2.125 8.125 -2.125 8.125 -1 7 C-0.63239269 4.67182036 -0.29758419 2.3381615 0 0 Z " fill="#F2AE30" transform="translate(202,59)"/>
<path d="M0 0 C0.66 0 1.32 0 2 0 C2.33 0.66 2.66 1.32 3 2 C5.01669827 3.13350534 5.01669827 3.13350534 7 4 C7 4.33 7 4.66 7 5 C6.0925 5.28875 5.185 5.5775 4.25 5.875 C1.67797092 6.76531776 -0.61346766 7.71494413 -3 9 C-2.44271087 5.65626525 -1.64826111 2.96687001 0 0 Z " fill="#343B4C" transform="translate(179,133)"/>
<path d="M0 0 C2 2 2 2 2.1953125 3.9453125 C2.13020833 5.96354167 2.06510417 7.98177083 2 10 C1.01 10.495 1.01 10.495 0 11 C-0.72693904 12.97888961 -1.39816251 14.97954558 -2 17 C-3.0625 15.1875 -3.0625 15.1875 -4 13 C-3.67 12.01 -3.34 11.02 -3 10 C-2.34 10 -1.68 10 -1 10 C-1.020625 8.72125 -1.04125 7.4425 -1.0625 6.125 C-1.125 2.25 -1.125 2.25 0 0 Z " fill="#FEF4CE" transform="translate(220,79)"/>
<path d="M0 0 C0.58007812 0.20496094 1.16015625 0.40992187 1.7578125 0.62109375 C6.1621984 2.14009813 10.35677777 3.4047151 15 4 C15 4.33 15 4.66 15 5 C10.83861737 5.08159574 7.0527516 4.98248524 3 4 C2.67 4.99 2.34 5.98 2 7 C0.4375 5.1875 0.4375 5.1875 -1 3 C-0.67 2.01 -0.34 1.02 0 0 Z " fill="#F1B74A" transform="translate(199,95)"/>
<path d="M0 0 C1.65 0 3.3 0 5 0 C5 1.65 5 3.3 5 5 C3.35 5 1.7 5 0 5 C0 3.35 0 1.7 0 0 Z " fill="#CECECE" transform="translate(186,221)"/>
<path d="M0 0 C1.65 0 3.3 0 5 0 C5 1.65 5 3.3 5 5 C3.35 5 1.7 5 0 5 C0 3.35 0 1.7 0 0 Z " fill="#C2C2C2" transform="translate(186,211)"/>
</svg>
