<?xml version="1.0" encoding="UTF-8"?>
<svg version="1.1" xmlns="http://www.w3.org/2000/svg" width="300" height="270">
<path d="M0 0 C-0.33 1.65 -0.66 3.3 -1 5 C0.32 5 1.64 5 3 5 C3.68707555 7.49064888 4 9.37886292 4 12 C4.99 12.33 5.98 12.66 7 13 C7 13.66 7 14.32 7 15 C10 16.33333333 10 16.33333333 13 15 C14.0828125 15.2165625 14.0828125 15.2165625 15.1875 15.4375 C18.85592161 16.17118432 22.26061046 16.06337948 26 16 C26 15.34 26 14.68 26 14 C28.97 13.505 28.97 13.505 32 13 C32.495 13.99 32.495 13.99 33 15 C27.63809899 17.61407872 22.96564796 19.49228528 17 20 C17 20.66 17 21.32 17 22 C14.03 22.33 11.06 22.66 8 23 C7.505 24.485 7.505 24.485 7 26 C6.29875 26.556875 5.5975 27.11375 4.875 27.6875 C2.79585842 29.76742206 2.79585842 29.76742206 2.9609375 32.03515625 C3.22212369 34.03640719 3.60419393 36.02096966 4 38 C3.01 38.66 2.02 39.32 1 40 C0.68154449 43.10494126 1.00575359 45.01726077 2 48 C2.66 48 3.32 48 4 48 C4 49.32 4 50.64 4 52 C4.763125 52.268125 5.52625 52.53625 6.3125 52.8125 C8.87380884 53.94424112 10.19692938 54.91223401 12 57 C13.32 56.34 14.64 55.68 16 55 C15.34 56.32 14.68 57.64 14 59 C15.4540625 59.61875 15.4540625 59.61875 16.9375 60.25 C20 62 20 62 20.875 64.1875 C20.91625 64.785625 20.9575 65.38375 21 66 C22.98 66.495 22.98 66.495 25 67 C25.33 68.32 25.66 69.64 26 71 C26.99 70.34 27.98 69.68 29 69 C28.67 68.01 28.34 67.02 28 66 C28.639375 65.87625 29.27875 65.7525 29.9375 65.625 C30.618125 65.41875 31.29875 65.2125 32 65 C32.495 64.01 32.495 64.01 33 63 C33.66 63 34.32 63 35 63 C35 63.66 35 64.32 35 65 C35.66 65 36.32 65 37 65 C37 65.66 37 66.32 37 67 C36.175 67.474375 35.35 67.94875 34.5 68.4375 C33.2625 69.2109375 33.2625 69.2109375 32 70 C32 70.99 32 71.98 32 73 C31.01 73.495 31.01 73.495 30 74 C30.309375 74.66 30.61875 75.32 30.9375 76 C31.85135548 78.58029782 32.16789017 80.33282945 32.375 83 C32.77561432 87.00614317 34.27430362 89.01052655 37 92 C37 92.66 37 93.32 37 94 C37.5775 94.0825 38.155 94.165 38.75 94.25 C41.6159304 95.20531013 42.9990764 96.78469173 45 99 C44.34 97.68 43.68 96.36 43 95 C43.763125 95.0825 44.52625 95.165 45.3125 95.25 C48.14416344 95.30342071 48.14416344 95.30342071 49.6875 93 C50.120625 92.34 50.55375 91.68 51 91 C51.66 91 52.32 91 53 91 C52.649375 91.598125 52.29875 92.19625 51.9375 92.8125 C50.66695302 95.10813214 50.66695302 95.10813214 52 98 C49.525 98.99 49.525 98.99 47 100 C47 100.99 47 101.98 47 103 C47.99 103.66 48.98 104.32 50 105 C50 105.99 50 106.98 50 108 C50.66 108 51.32 108 52 108 C52 108.66 52 109.32 52 110 C52.639375 110.268125 53.27875 110.53625 53.9375 110.8125 C56 112 56 112 57 115 C54 115 54 115 51.4375 112.5625 C50.2309375 111.2940625 50.2309375 111.2940625 49 110 C48.34 109.67 47.68 109.34 47 109 C47.48578543 112.12290635 47.9986012 114.99580359 49 118 C48.44140625 120.48046875 48.44140625 120.48046875 47.5625 123.1875 C47.27503906 124.08855469 46.98757812 124.98960937 46.69140625 125.91796875 C46.46324219 126.60503906 46.23507813 127.29210937 46 128 C46.60328125 128.2784375 47.2065625 128.556875 47.828125 128.84375 C50.78948736 130.42030262 52.7675572 132.519508 55 135 C55 135.66 55 136.32 55 137 C53 137 53 137 50.5625 134.625 C49.716875 133.75875 48.87125 132.8925 48 132 C47.01 131.34 46.02 130.68 45 130 C44.87625 130.969375 44.7525 131.93875 44.625 132.9375 C44.41875 133.948125 44.2125 134.95875 44 136 C43.34 136.33 42.68 136.66 42 137 C41.67 137.99 41.34 138.98 41 140 C39.33333333 140.66666667 37.66666667 141.33333333 36 142 C35.67 142.99 35.34 143.98 35 145 C36.65 145.33 38.3 145.66 40 146 C40.309375 145.38125 40.61875 144.7625 40.9375 144.125 C41.625 142.75 42.3125 141.375 43 140 C45.0625 139.375 45.0625 139.375 47 139 C47.33 140.98 47.66 142.96 48 145 C47.2575 145.103125 46.515 145.20625 45.75 145.3125 C42.82985982 146.04253504 41.26812446 147.06789398 39 149 C39.33 150.32 39.66 151.64 40 153 C38.68 153 37.36 153 36 153 C33.56304526 154.52018248 33.56304526 154.52018248 32 157 C32.14349347 160.19954954 32.14349347 160.19954954 33 163 C32.01 163.33 31.02 163.66 30 164 C29.67 163.01 29.34 162.02 29 161 C28.34 161.33 27.68 161.66 27 162 C27.66 162.5775 28.32 163.155 29 163.75 C31 166 31 166 31 170 C30.38125 169.835 29.7625 169.67 29.125 169.5 C27.03936614 168.92365356 27.03936614 168.92365356 25 169 C23.06201737 171.77260299 23.06201737 171.77260299 22 174 C21.67 174 21.34 174 21 174 C21 174.66 21 175.32 21 176 C24.89027019 177.49625777 27.1995578 176.47794974 31 175 C31.76828125 174.71898437 32.5365625 174.43796875 33.328125 174.1484375 C39.80481817 171.70477719 45.29432134 168.52858073 50.9921875 164.640625 C55.6122006 161.58458521 59.55374899 160.0697993 65 159 C64.67 157.68 64.34 156.36 64 155 C64.70125 154.938125 65.4025 154.87625 66.125 154.8125 C71.38206808 153.32680685 75.02186325 149.46720512 78 145 C77.34 144.67 76.68 144.34 76 144 C76 143.34 76 142.68 76 142 C76.73863281 142.1134375 77.47726563 142.226875 78.23828125 142.34375 C81.22519735 142.27792619 81.22519735 142.27792619 83.16796875 139.59375 C84.16763672 138.06234375 84.16763672 138.06234375 85.1875 136.5 C86.41673518 134.63851958 87.67842916 132.79710295 89 131 C89.66 131 90.32 131 91 131 C90.48118887 135.1724106 89.28848726 137.25416821 86.4375 140.3125 C85.79683594 141.00988281 85.15617188 141.70726562 84.49609375 142.42578125 C84.00238281 142.94527344 83.50867188 143.46476563 83 144 C83.66 145.32 84.32 146.64 85 148 C84.43410156 147.74734375 83.86820313 147.4946875 83.28515625 147.234375 C80.82669338 146.71521402 80.82669338 146.71521402 78.74609375 148.765625 C77.98425781 149.58546875 77.22242188 150.4053125 76.4375 151.25 C75.67308594 152.05953125 74.90867188 152.8690625 74.12109375 153.703125 C73.42113281 154.46109375 72.72117188 155.2190625 72 156 C71.12021484 156.79664063 71.12021484 156.79664063 70.22265625 157.609375 C68.66985253 159.06688953 68.66985253 159.06688953 69 162 C68.43152344 162.31453125 67.86304688 162.6290625 67.27734375 162.953125 C66.50519531 163.38109375 65.73304688 163.8090625 64.9375 164.25 C64.11378906 164.70632812 63.29007813 165.16265625 62.44140625 165.6328125 C60.40408558 166.77371207 58.38792382 167.94200605 56.375 169.125 C53.63676356 170.64624246 50.94775156 171.91435469 48.05078125 173.08984375 C45.45892465 174.24013439 43.0011426 175.60154833 40.5 176.9375 C33.59837691 180.44962038 26.49898586 182.25843225 19 184 C19 184.66 19 185.32 19 186 C16.69 186.33 14.38 186.66 12 187 C12 186.34 12 185.68 12 185 C10.35 185.66 8.7 186.32 7 187 C7 187.33 7 187.66 7 188 C7.495 188.474375 7.99 188.94875 8.5 189.4375 C10 191 10 191 10 193 C8.68 192.67 7.36 192.34 6 192 C6 191.34 6 190.68 6 190 C5.38125 189.690625 4.7625 189.38125 4.125 189.0625 C2.75 188.375 1.375 187.6875 0 187 C2.16855792 192.55104982 2.16855792 192.55104982 6 197 C6 197.66 6 198.32 6 199 C4 198 2 197 0 196 C0.01160156 196.74765625 0.02320313 197.4953125 0.03515625 198.265625 C0.04417969 199.25046875 0.05320312 200.2353125 0.0625 201.25 C0.07410156 202.22453125 0.08570313 203.1990625 0.09765625 204.203125 C0.01195577 206.65758678 -0.29293934 208.66168914 -1 211 C-1.66 211 -2.32 211 -3 211 C-3.66666667 206.33333333 -4.33333333 201.66666667 -5 197 C-5.66 197 -6.32 197 -7 197 C-6.67 195.68 -6.34 194.36 -6 193 C-6.99 192.67 -7.98 192.34 -9 192 C-10.67580052 192.97207035 -10.67580052 192.97207035 -12.1875 194.4375 C-13.115625 195.283125 -14.04375 196.12875 -15 197 C-15 193.22089522 -14.00296038 192.53893899 -11.5 189.8125 C-10.8503125 189.09707031 -10.200625 188.38164062 -9.53125 187.64453125 C-8.77328125 186.83048828 -8.77328125 186.83048828 -8 186 C-8.99 185.67 -9.98 185.34 -11 185 C-11 185.66 -11 186.32 -11 187 C-11.515625 186.690625 -12.03125 186.38125 -12.5625 186.0625 C-15.66665423 184.70940713 -18.65115007 184.38640576 -22 184 C-21.34 184.33 -20.68 184.66 -20 185 C-20 186.32 -20 187.64 -20 189 C-20.99 189 -21.98 189 -23 189 C-23.45375 187.9275 -23.9075 186.855 -24.375 185.75 C-27.23646449 180.72721659 -31.69661723 179.59021972 -37 178 C-38.15048828 177.64421875 -38.15048828 177.64421875 -39.32421875 177.28125 C-42.72152797 176.32673798 -44.59194665 175.86398222 -48 177 C-48.04253906 176.13568359 -48.04253906 176.13568359 -48.0859375 175.25390625 C-49.49783308 171.77243725 -52.45525096 170.62651412 -55.625 168.9375 C-56.22957031 168.59912109 -56.83414063 168.26074219 -57.45703125 167.91210938 C-60.50828681 166.23034059 -63.56524529 164.73229303 -66.7890625 163.41015625 C-70.42161288 161.81483911 -72.36340445 159.92955062 -75 157 C-75.598125 156.443125 -76.19625 155.88625 -76.8125 155.3125 C-78 154 -78 154 -78 152 C-79.423125 151.62875 -79.423125 151.62875 -80.875 151.25 C-84 150 -84 150 -85.4375 148 C-86 146 -86 146 -85 144 C-81.6277395 145.41796574 -79.92326841 147.07208798 -77.6875 149.9375 C-74.39434603 153.83262835 -71.89976509 155.58660623 -67 157 C-66.01 156.67 -65.02 156.34 -64 156 C-64 157.32 -64 158.64 -64 160 C-60.04926537 163.62986278 -55.02916979 165.39494581 -50 167 C-48.75880288 167.70849449 -47.5298417 168.43875845 -46.3125 169.1875 C-45.219375 169.785625 -44.12625 170.38375 -43 171 C-42.01 170.67 -41.02 170.34 -40 170 C-39.67 170.66 -39.34 171.32 -39 172 C-36.87423218 172.46651207 -36.87423218 172.46651207 -34.4375 172.625 C-33.61121094 172.69976562 -32.78492188 172.77453125 -31.93359375 172.8515625 C-30.97646484 172.92503906 -30.97646484 172.92503906 -30 173 C-30 173.99 -30 174.98 -30 176 C-26.11771086 176.22184509 -23.54847374 175.53447513 -20 174 C-19.34 174 -18.68 174 -18 174 C-18.515625 173.21625 -19.03125 172.4325 -19.5625 171.625 C-20.036875 170.75875 -20.51125 169.8925 -21 169 C-20.67 168.34 -20.34 167.68 -20 167 C-18.35 167 -16.7 167 -15 167 C-14.67 166.01 -14.34 165.02 -14 164 C-14.598125 163.938125 -15.19625 163.87625 -15.8125 163.8125 C-18.87143458 162.6763243 -19.55041099 160.82669858 -21 158 C-22.65 158.33 -24.3 158.66 -26 159 C-24.92598892 161.91517292 -24.22189824 163.77810176 -22 166 C-22.33 166.99 -22.66 167.98 -23 169 C-23.33 168.01 -23.66 167.02 -24 166 C-24.66 166 -25.32 166 -26 166 C-26 165.34 -26 164.68 -26 164 C-26.86625 163.8453125 -26.86625 163.8453125 -27.75 163.6875 C-30.31956433 162.90235534 -31.88366695 161.622522 -34 160 C-34.66 160 -35.32 160 -36 160 C-36.04125 159.443125 -36.0825 158.88625 -36.125 158.3125 C-37.46930374 154.75969726 -40.00974189 153.29041047 -43 151 C-42.67 150.01 -42.34 149.02 -42 148 C-40.68 148.33 -39.36 148.66 -38 149 C-37.34 148.01 -36.68 147.02 -36 146 C-36.804375 145.566875 -37.60875 145.13375 -38.4375 144.6875 C-41 143 -41 143 -42 140 C-42.66 139.67 -43.32 139.34 -44 139 C-44.66719444 135.93090555 -45 133.14213983 -45 130 C-49.27053927 130 -50.82898018 132.30125972 -54 135 C-54.66 135 -55.32 135 -56 135 C-54.61122646 131.64379729 -53.08322035 129.92701272 -50 128 C-49.34 128 -48.68 128 -48 128 C-48 126.68 -48 125.36 -48 124 C-48.66 124 -49.32 124 -50 124 C-49.814375 123.401875 -49.62875 122.80375 -49.4375 122.1875 C-48.77906313 119.83591238 -48.77906313 119.83591238 -50 117 C-51.86122945 115.94931634 -51.86122945 115.94931634 -54 115 C-55.28268434 114.06405756 -56.53402205 113.08360969 -57.75 112.0625 C-58.36359375 111.55847656 -58.9771875 111.05445313 -59.609375 110.53515625 C-61 109 -61 109 -61 106 C-54.25 106.875 -54.25 106.875 -52 108 C-51.67 107.34 -51.34 106.68 -51 106 C-49.68 106.33 -48.36 106.66 -47 107 C-47.37881078 104.25362183 -47.77832287 103.19950942 -49.875 101.3125 C-52.05349596 99.85467892 -52.05349596 99.85467892 -55 99 C-54.34 98.01 -53.68 97.02 -53 96 C-53.66 96 -54.32 96 -55 96 C-54.67 94.35 -54.34 92.7 -54 91 C-50.33694766 90.25073929 -47.57644848 89.7619986 -44 91 C-44 89.68 -44 88.36 -44 87 C-41.525 86.505 -41.525 86.505 -39 86 C-38.566875 86.9590625 -38.566875 86.9590625 -38.125 87.9375 C-37.17176549 90.15206079 -37.17176549 90.15206079 -35 91 C-34.505 89.515 -34.505 89.515 -34 88 C-34.99 87.505 -34.99 87.505 -36 87 C-36.625 84.9375 -36.625 84.9375 -37 83 C-36.34 83 -35.68 83 -35 83 C-35 82.34 -35 81.68 -35 81 C-34.34 81 -33.68 81 -33 81 C-33.50603992 78.83125748 -33.99983813 77.00032373 -35 75 C-34.01 74.67 -33.02 74.34 -32 74 C-32.99 74 -33.98 74 -35 74 C-35 72.35 -35 70.7 -35 69 C-34.236875 69.20625 -33.47375 69.4125 -32.6875 69.625 C-29.78114056 70.33391203 -29.78114056 70.33391203 -27 68 C-27 67.34 -27 66.68 -27 66 C-25.68946944 64.97029741 -24.35113205 63.97581759 -23 63 C-22.29875 62.278125 -21.5975 61.55625 -20.875 60.8125 C-19 59 -19 59 -17 59 C-17.99 56.525 -17.99 56.525 -19 54 C-18.2575 54.020625 -17.515 54.04125 -16.75 54.0625 C-14.26860581 54.00610468 -12.32916018 53.83184292 -10 53 C-9.505 52.01 -9.505 52.01 -9 51 C-7.515 51.99 -7.515 51.99 -6 53 C-5.97308315 50.54159395 -5.95320198 48.08348118 -5.9375 45.625 C-5.92493164 44.57699219 -5.92493164 44.57699219 -5.91210938 43.5078125 C-5.8164558 39.62704624 -5.8164558 39.62704624 -7 36 C-7.22467831 34.46331135 -7.40796805 32.92031946 -7.5625 31.375 C-7.68818359 30.14910156 -7.68818359 30.14910156 -7.81640625 28.8984375 C-7.87699219 28.27195312 -7.93757813 27.64546875 -8 27 C-9.485 27.495 -9.485 27.495 -11 28 C-11 27.01 -11 26.02 -11 25 C-12.485 24.505 -12.485 24.505 -14 24 C-14 23.34 -14 22.68 -14 22 C-15.32 22 -16.64 22 -18 22 C-18.33 22.66 -18.66 23.32 -19 24 C-19.66 24 -20.32 24 -21 24 C-21 23.34 -21 22.68 -21 22 C-21.75023437 21.75765625 -22.50046875 21.5153125 -23.2734375 21.265625 C-29.95625463 19.07729697 -36.5072453 16.70052629 -43 14 C-43 13.34 -43 12.68 -43 12 C-41.92621094 12.20496094 -40.85242188 12.40992187 -39.74609375 12.62109375 C-38.3099114 12.89331132 -36.8737126 13.16544211 -35.4375 13.4375 C-34.73302734 13.57220703 -34.02855469 13.70691406 -33.30273438 13.84570312 C-24.82724762 15.44706237 -17.40765939 16.74786917 -9 14 C-6.61058877 11.96283266 -6.61058877 11.96283266 -6 9 C-6 7.783125 -6 6.56625 -6 5.3125 C-6 4.219375 -6 3.12625 -6 2 C-3 0 -3 0 0 0 Z M-11 66 C-10 68 -10 68 -10 68 Z M8 66 C9 68 9 68 9 68 Z M12 66 C11.67 66.66 11.34 67.32 11 68 C11.99 68.598125 12.98 69.19625 14 69.8125 C14.99 70.534375 15.98 71.25625 17 72 C17 72.99 17 73.98 17 75 C17.66 75 18.32 75 19 75 C19 75.66 19 76.32 19 77 C19.99 77.33 20.98 77.66 22 78 C23.29968565 75.97602515 23.29968565 75.97602515 22.25 73.5625 C20.31486346 69.59547009 18.99507669 68.37071484 14.8125 66.8125 C13.884375 66.544375 12.95625 66.27625 12 66 Z M-19 67 C-18 69 -18 69 -18 69 Z M5 67 C4.67 67.66 4.34 68.32 4 69 C4.66 69 5.32 69 6 69 C5.67 68.34 5.34 67.68 5 67 Z M-14 68 C-13 70 -13 70 -13 70 Z M-8 69 C-8.33 69.66 -8.66 70.32 -9 71 C-8.01 70.67 -7.02 70.34 -6 70 C-6.66 69.67 -7.32 69.34 -8 69 Z M6 69 C6 69.99 6 70.98 6 72 C6.66 71.67 7.32 71.34 8 71 C7.34 70.34 6.68 69.68 6 69 Z M-24 75 C-24 75.99 -24 76.98 -24 78 C-23.34 77.01 -22.68 76.02 -22 75 C-22.66 75 -23.32 75 -24 75 Z M4 76 C4 76.66 4 77.32 4 78 C4.66 77.67 5.32 77.34 6 77 C5.34 76.67 4.68 76.34 4 76 Z M-11 78 C-11 78.99 -11 79.98 -11 81 C-9.68 81 -8.36 81 -7 81 C-7.33 80.01 -7.66 79.02 -8 78 C-8.99 78 -9.98 78 -11 78 Z M-27 79 C-27.66 79.66 -28.32 80.32 -29 81 C-28.01 81.33 -27.02 81.66 -26 82 C-25.67 81.01 -25.34 80.02 -25 79 C-25.66 79 -26.32 79 -27 79 Z M7 79 C7 79.99 7 80.98 7 82 C7.66 81.01 8.32 80.02 9 79 C8.34 79 7.68 79 7 79 Z M24 79 C24 79.99 24 80.98 24 82 C24.66 82 25.32 82 26 82 C25.67 81.01 25.34 80.02 25 79 C24.67 79 24.34 79 24 79 Z M9 81 C8.67 81.66 8.34 82.32 8 83 C8.99 82.67 9.98 82.34 11 82 C10.34 81.67 9.68 81.34 9 81 Z M-6 82 C-6.66 82.66 -7.32 83.32 -8 84 C-6.68 84 -5.36 84 -4 84 C-4 83.34 -4 82.68 -4 82 C-4.66 82 -5.32 82 -6 82 Z M7 88 C8.52961986 91.44164469 10.62729066 94.09151758 13 97 C13.33 97.66 13.66 98.32 14 99 C14.99 98.67 15.98 98.34 17 98 C17 97.34 17 96.68 17 96 C17.99 96 18.98 96 20 96 C20 94.68 20 93.36 20 92 C22.475 92.99 22.475 92.99 25 94 C24.30364334 91.96513418 24.30364334 91.96513418 23 90 C21.05248187 89.33379309 21.05248187 89.33379309 18.8125 89.3125 C18.01585937 89.25835937 17.21921875 89.20421875 16.3984375 89.1484375 C15.21121094 89.07496094 15.21121094 89.07496094 14 89 C12.64385373 88.82739957 11.28925783 88.64164302 9.9375 88.4375 C8.968125 88.293125 7.99875 88.14875 7 88 Z M-17 89 C-17.66 89.66 -18.32 90.32 -19 91 C-17.71034824 92.37562854 -16.37310707 93.70766393 -15 95 C-14.34 95 -13.68 95 -13 95 C-13 94.34 -13 93.68 -13 93 C-13.66 93 -14.32 93 -15 93 C-15 92.34 -15 91.68 -15 91 C-14.34 91 -13.68 91 -13 91 C-13 90.34 -13 89.68 -13 89 C-14.32 89 -15.64 89 -17 89 Z M-23 89 C-23.66 89.66 -24.32 90.32 -25 91 C-24.01 91 -23.02 91 -22 91 C-22.33 90.34 -22.66 89.68 -23 89 Z M-42 90 C-43.485 91.485 -43.485 91.485 -45 93 C-44.34 93 -43.68 93 -43 93 C-43 93.66 -43 94.32 -43 95 C-45.31 94.34 -47.62 93.68 -50 93 C-47.75041666 95.58333229 -47.75041666 95.58333229 -45 98 C-43.68 98 -42.36 98 -41 98 C-41 97.34 -41 96.68 -41 96 C-40.01 95.67 -39.02 95.34 -38 95 C-39.3089572 91.87802522 -39.3089572 91.87802522 -42 90 Z M-25 93 C-24.67 94.32 -24.34 95.64 -24 97 C-25.32 96.67 -26.64 96.34 -28 96 C-28 97.98 -28 99.96 -28 102 C-26.68 101.67 -25.36 101.34 -24 101 C-24.33 102.32 -24.66 103.64 -25 105 C-24.01 104.67 -23.02 104.34 -22 104 C-21.835 103.34 -21.67 102.68 -21.5 102 C-21.335 101.34 -21.17 100.68 -21 100 C-20.01 99.67 -19.02 99.34 -18 99 C-17.26676204 96.98491642 -17.26676204 96.98491642 -17 95 C-20.93954953 93.63420132 -20.93954953 93.63420132 -25 93 Z M-53 94 C-53 94.66 -53 95.32 -53 96 C-52.34 96 -51.68 96 -51 96 C-51 95.34 -51 94.68 -51 94 C-51.66 94 -52.32 94 -53 94 Z M-8 96 C-8.33 96.66 -8.66 97.32 -9 98 C-8.34 98 -7.68 98 -7 98 C-7 99.32 -7 100.64 -7 102 C-6.34 102 -5.68 102 -5 102 C-5.34444881 99.52733235 -5.34444881 99.52733235 -6 97 C-6.66 96.67 -7.32 96.34 -8 96 Z M22 95 C21.01 95.495 21.01 95.495 20 96 C20 96.66 20 97.32 20 98 C20.66 98 21.32 98 22 98 C22 99.65 22 101.3 22 103 C22.66 102.67 23.32 102.34 24 102 C24.65555119 99.47266765 24.65555119 99.47266765 25 97 C24.01 96.34 23.02 95.68 22 95 Z M33 97 C32.14025199 99.29294488 32.14025199 99.29294488 32 102 C33.83358335 104.33454661 33.83358335 104.33454661 36 106 C36.99 105.67 37.98 105.34 39 105 C37.55746343 101.63408134 35.66735273 99.48952921 33 97 Z M-36 98 C-36.66 99.32 -37.32 100.64 -38 102 C-37.01 101.67 -36.02 101.34 -35 101 C-35.33 100.01 -35.66 99.02 -36 98 Z M-30 98 C-29.67 98.66 -29.34 99.32 -29 100 C-28.67 99.34 -28.34 98.68 -28 98 C-28.66 98 -29.32 98 -30 98 Z M19 98 C18.34 99.32 17.68 100.64 17 102 C17.99 102.33 18.98 102.66 20 103 C20 101.35 20 99.7 20 98 C19.67 98 19.34 98 19 98 Z M6 100 C3.8480563 103.22791555 3.79913557 104.28400809 4 108 C5.99983534 107.20882096 5.99983534 107.20882096 8 106 C8.33 105.01 8.66 104.02 9 103 C8.01 102.01 7.02 101.02 6 100 Z M-13 104 C-13.33 104.66 -13.66 105.32 -14 106 C-13.34 106.66 -12.68 107.32 -12 108 C-12.33 106.68 -12.66 105.36 -13 104 Z M16 104 C16 104.99 16 105.98 16 107 C16.99 106.67 17.98 106.34 19 106 C18.67 105.34 18.34 104.68 18 104 C17.34 104 16.68 104 16 104 Z M1 105 C2 108 2 108 2 108 Z M-9 106 C-9 107.98 -9 109.96 -9 112 C-8.01 112.495 -8.01 112.495 -7 113 C-7 112.34 -7 111.68 -7 111 C-6.34 110.67 -5.68 110.34 -5 110 C-5.66 109.34 -6.32 108.68 -7 108 C-7.66 107.34 -8.32 106.68 -9 106 Z M8.375 108.5 C7.92125 108.995 7.4675 109.49 7 110 C7.99 110.33 8.98 110.66 10 111 C10.66 109.68 11.32 108.36 12 107 C9.87635519 106.77390663 9.87635519 106.77390663 8.375 108.5 Z M19 107 C20 109 20 109 20 109 Z M-51 108 C-50.67 109.32 -50.34 110.64 -50 112 C-49.34 111.01 -48.68 110.02 -48 109 C-48.99 108.67 -49.98 108.34 -51 108 Z M39 108 C38.67 108.66 38.34 109.32 38 110 C37.154375 110.474375 36.30875 110.94875 35.4375 111.4375 C34.2309375 112.2109375 34.2309375 112.2109375 33 113 C33 113.99 33 114.98 33 116 C34.76401402 117.6877081 34.76401402 117.6877081 37 119.1875 C37.7425 119.71730469 38.485 120.24710938 39.25 120.79296875 C39.8275 121.19128906 40.405 121.58960938 41 122 C41.93402724 116.58264203 42.20808081 113.19548425 40 108 C39.67 108 39.34 108 39 108 Z M-41 110 C-41 110.66 -41 111.32 -41 112 C-41.99 112.495 -41.99 112.495 -43 113 C-42.34 113 -41.68 113 -41 113 C-40.67 113.66 -40.34 114.32 -40 115 C-40 113.35 -40 111.7 -40 110 C-40.33 110 -40.66 110 -41 110 Z M-37 110 C-36.67 110.99 -36.34 111.98 -36 113 C-36 112.01 -36 111.02 -36 110 C-36.33 110 -36.66 110 -37 110 Z M-13 110 C-13.66 111.65 -14.32 113.3 -15 115 C-13.68 114.67 -12.36 114.34 -11 114 C-11.66 112.68 -12.32 111.36 -13 110 Z M5 111 C4.67 112.32 4.34 113.64 4 115 C5.32 114.34 6.64 113.68 8 113 C7.67 112.34 7.34 111.68 7 111 C6.34 111 5.68 111 5 111 Z M12 111 C12 114 12 114 12 114 Z M-43 115 C-43 116.98 -43 118.96 -43 121 C-42.34 120.34 -41.68 119.68 -41 119 C-41 117.68 -41 116.36 -41 115 C-41.66 115 -42.32 115 -43 115 Z M-26 118 C-25.67 118.99 -25.34 119.98 -25 121 C-24.34 120.34 -23.68 119.68 -23 119 C-23.99 118.67 -24.98 118.34 -26 118 Z M31 118 C31 118.66 31 119.32 31 120 C30.34 120 29.68 120 29 120 C29 120.66 29 121.32 29 122 C28.34 122 27.68 122 27 122 C27 123.65 27 125.3 27 127 C26.195625 127.28875 25.39125 127.5775 24.5625 127.875 C21.8673532 128.73262568 21.8673532 128.73262568 21 131 C21.66 131.66 22.32 132.32 23 133 C23.66 132.67 24.32 132.34 25 132 C25.33 132.99 25.66 133.98 26 135 C27.65 134.01 29.3 133.02 31 132 C30.67 133.32 30.34 134.64 30 136 C29.01 136 28.02 136 27 136 C26.67 137.32 26.34 138.64 26 140 C28.75382374 140.2032794 28.75382374 140.2032794 32 139 C35.95602903 135.10025593 39.7789439 130.75666927 40 125 C38.68863835 122.88954599 38.68863835 122.88954599 36.6875 121.1875 C36.05199219 120.58292969 35.41648437 119.97835937 34.76171875 119.35546875 C33.10628452 117.79673477 33.10628452 117.79673477 31 118 Z M18 119 C18.66 120.32 19.32 121.64 20 123 C20.99 122.34 21.98 121.68 23 121 C23 120.34 23 119.68 23 119 C21.35 119 19.7 119 18 119 Z M-37 120 C-37.2502157 122.91634129 -37.2502157 122.91634129 -37 126 C-35.515 126.99 -35.515 126.99 -34 128 C-33.01 127.34 -32.02 126.68 -31 126 C-31.99 124.68 -32.98 123.36 -34 122 C-32.35 122.99 -30.7 123.98 -29 125 C-29.26676204 123.01508358 -29.26676204 123.01508358 -30 121 C-32.94729537 119.84188612 -32.94729537 119.84188612 -36 120 C-36.33 120 -36.66 120 -37 120 Z M7 125 C4.54420303 128.68564084 4.54420303 128.68564084 4 133 C6.49552484 132.21869929 6.49552484 132.21869929 9 131 C9.33 130.01 9.66 129.02 10 128 C9.34 128 8.68 128 8 128 C7.67 127.01 7.34 126.02 7 125 Z M-29 126 C-28.01 127.485 -28.01 127.485 -27 129 C-26.01 128.67 -25.02 128.34 -24 128 C-26.475 127.01 -26.475 127.01 -29 126 Z M-13 126 C-13 126.66 -13 127.32 -13 128 C-12.34 127.67 -11.68 127.34 -11 127 C-11.66 126.67 -12.32 126.34 -13 126 Z M-9 126 C-8.34 126.66 -7.68 127.32 -7 128 C-7 127.34 -7 126.68 -7 126 C-7.66 126 -8.32 126 -9 126 Z M-41 127 C-40 129 -40 129 -40 129 Z M-31 128 C-31 128.66 -31 129.32 -31 130 C-31.99 130.495 -31.99 130.495 -33 131 C-30.525 131.99 -30.525 131.99 -28 133 C-28 132.01 -28 131.02 -28 130 C-28.99 129.34 -29.98 128.68 -31 128 Z M-40 129 C-39 132 -39 132 -39 132 Z M-37 129 C-37 129.99 -37 130.98 -37 132 C-37.66 132 -38.32 132 -39 132 C-39 132.66 -39 133.32 -39 134 C-38.01 134.33 -37.02 134.66 -36 135 C-35.67 135.99 -35.34 136.98 -35 138 C-32.98491642 138.73323796 -32.98491642 138.73323796 -31 139 C-31 137.68 -31 136.36 -31 135 C-32.86655232 133.3916876 -32.86655232 133.3916876 -35 132 C-35.66 131.01 -36.32 130.02 -37 129 Z M-24 134 C-24.33 134.99 -24.66 135.98 -25 137 C-24.01 137 -23.02 137 -22 137 C-22.33 136.01 -22.66 135.02 -23 134 C-23.33 134 -23.66 134 -24 134 Z M18 135 C17.71125 135.639375 17.4225 136.27875 17.125 136.9375 C16 139 16 139 14 140 C14.66 141.65 15.32 143.3 16 145 C16.33 144.34 16.66 143.68 17 143 C17.66 143 18.32 143 19 143 C19.6878236 140.64632287 19.6878236 140.64632287 20 138 C19.34 137.01 18.68 136.02 18 135 Z M-20 139 C-19.49396008 141.16874252 -19.00016187 142.99967627 -18 145 C-17.01 144.67 -16.02 144.34 -15 144 C-15.66 144 -16.32 144 -17 144 C-17.12375 143.360625 -17.2475 142.72125 -17.375 142.0625 C-17.684375 141.0415625 -17.684375 141.0415625 -18 140 C-18.66 139.67 -19.32 139.34 -20 139 Z M-27 142 C-27 142.66 -27 143.32 -27 144 C-26.34 143.67 -25.68 143.34 -25 143 C-25.66 142.67 -26.32 142.34 -27 142 Z M11 142 C11 142.66 11 143.32 11 144 C11.66 143.67 12.32 143.34 13 143 C12.34 142.67 11.68 142.34 11 142 Z M34 145 C35 147 35 147 35 147 Z M-34 148 C-34 151.59947819 -33.16587393 152.25100617 -31 155 C-30.30419733 156.31836295 -29.62775567 157.64791086 -29 159 C-28.566875 158.505 -28.13375 158.01 -27.6875 157.5 C-26 156 -26 156 -23 156 C-21.29467677 154.05990478 -21.29467677 154.05990478 -20 152 C-20.680625 152.268125 -21.36125 152.53625 -22.0625 152.8125 C-26.00476411 153.06413388 -27.47621047 151.5481835 -30.44921875 149.12890625 C-31.94979666 147.8038217 -31.94979666 147.8038217 -34 148 Z M31 147 C30.01 147.33 29.02 147.66 28 148 C28 148.99 28 149.98 28 151 C27.01 150.67 26.02 150.34 25 150 C24.34 151.32 23.68 152.64 23 154 C24.32 154.99 25.64 155.98 27 157 C31.28070998 153.22406041 31.28070998 153.22406041 33 148 C32.34 147.67 31.68 147.34 31 147 Z M-5 150 C-4 152 -4 152 -4 152 Z M16 151 C16 151.99 16 152.98 16 154 C17.32 153.67 18.64 153.34 20 153 C18.68 152.34 17.36 151.68 16 151 Z M-17 153 C-17.66 153.66 -18.32 154.32 -19 155 C-17.68798827 156.56249809 -17.68798827 156.56249809 -16 158 C-15.01 158 -14.02 158 -13 158 C-14.3089572 154.87802522 -14.3089572 154.87802522 -17 153 Z M21 154 C20.67 154.66 20.34 155.32 20 156 C20.33 156.66 20.66 157.32 21 158 C21.66 158 22.32 158 23 158 C22.34 156.68 21.68 155.36 21 154 Z M-5 155 C-4 157 -4 157 -4 157 Z M10 155 C9.67 155.66 9.34 156.32 9 157 C9.99 156.67 10.98 156.34 12 156 C11.34 155.67 10.68 155.34 10 155 Z M13 155 C13.33 155.99 13.66 156.98 14 158 C14.99 157.67 15.98 157.34 17 157 C15.68 156.34 14.36 155.68 13 155 Z M-9 156 C-8 158 -8 158 -8 158 Z M17 158 C17 158.99 17 159.98 17 161 C17.66 161.33 18.32 161.66 19 162 C18.67 160.68 18.34 159.36 18 158 C17.67 158 17.34 158 17 158 Z M29 158 C30 160 30 160 30 160 Z M-13 159 C-13.66 159.66 -14.32 160.32 -15 161 C-14.20882096 162.99983534 -14.20882096 162.99983534 -13 165 C-12.01 165.33 -11.02 165.66 -10 166 C-9.34 165.34 -8.68 164.68 -8 164 C-8.3185177 161.89179203 -8.3185177 161.89179203 -9 160 C-10.89179203 159.3185177 -10.89179203 159.3185177 -13 159 Z M-7 159 C-6.34 159.66 -5.68 160.32 -5 161 C-5 160.34 -5 159.68 -5 159 C-5.66 159 -6.32 159 -7 159 Z M8 161 C7.01 162.485 7.01 162.485 6 164 C6.99 164.495 6.99 164.495 8 165 C8.66 163.68 9.32 162.36 10 161 C9.34 161 8.68 161 8 161 Z M13 162 C12.17361624 164.89234315 12 166.88742431 12 170 C13.98 168.35 15.96 166.7 18 165 C17.67 164.01 17.34 163.02 17 162 C15.68 162 14.36 162 13 162 Z M11 163 C10.01 163.99 9.02 164.98 8 166 C9.65 165.67 11.3 165.34 13 165 C12.34 164.34 11.68 163.68 11 163 Z M21 164 C20.67 165.98 20.34 167.96 20 170 C21.65 169.01 23.3 168.02 25 167 C24.67 166.01 24.34 165.02 24 164 C23.01 164 22.02 164 21 164 Z M-13 167 C-13 167.66 -13 168.32 -13 169 C-13.99 169 -14.98 169 -16 169 C-15.67 169.99 -15.34 170.98 -15 172 C-13.68 170.68 -12.36 169.36 -11 168 C-11.66 167.67 -12.32 167.34 -13 167 Z M4 168 C4 168.66 4 169.32 4 170 C3.01 170.495 3.01 170.495 2 171 C2.99 171 3.98 171 5 171 C5 170.01 5 169.02 5 168 C4.67 168 4.34 168 4 168 Z M17 169 C15.45833358 170.37485532 15.45833358 170.37485532 14 172 C14 172.66 14 173.32 14 174 C15.65 173.67 17.3 173.34 19 173 C18.34 171.68 17.68 170.36 17 169 Z M-12 171 C-12.33 171.99 -12.66 172.98 -13 174 C-12.01 175.485 -12.01 175.485 -11 177 C-11.99 177.33 -12.98 177.66 -14 178 C-14 178.66 -14 179.32 -14 180 C-11.36 180 -8.72 180 -6 180 C-6.33 177.69 -6.66 175.38 -7 173 C-7.99 173 -8.98 173 -10 173 C-10 172.34 -10 171.68 -10 171 C-10.66 171 -11.32 171 -12 171 Z M7 171 C5.515 172.98 5.515 172.98 4 175 C5.32 175 6.64 175 8 175 C8 175.99 8 176.98 8 178 C7.38125 177.814375 6.7625 177.62875 6.125 177.4375 C3.95839822 176.76313824 3.95839822 176.76313824 2 178 C2.33 178.66 2.66 179.32 3 180 C6.96 180 10.92 180 15 180 C15.33051527 176.79212525 15.33051527 176.79212525 12.6875 174.375 C10.17215093 171.84001846 10.17215093 171.84001846 7 171 Z M-16 176 C-16.66 176.66 -17.32 177.32 -18 178 C-16.35 177.67 -14.7 177.34 -13 177 C-13.99 176.67 -14.98 176.34 -16 176 Z M19 176 C19.99 177.485 19.99 177.485 21 179 C21 178.01 21 177.02 21 176 C20.34 176 19.68 176 19 176 Z M-5 189 C-5.33 189.66 -5.66 190.32 -6 191 C-5.34 191.66 -4.68 192.32 -4 193 C-4 191.68 -4 190.36 -4 189 C-4.33 189 -4.66 189 -5 189 Z M-3 192 C-2 195 -2 195 -2 195 Z " fill="#000000" transform="translate(154,59)"/>
<path d="M0 0 C-0.33 3.63 -0.66 7.26 -1 11 C-1.66 11 -2.32 11 -3 11 C-3.33 9.35 -3.66 7.7 -4 6 C-8.95 5.67 -13.9 5.34 -19 5 C-19 9.95 -19 14.9 -19 20 C-15.04 19.67 -11.08 19.34 -7 19 C-6.67 17.68 -6.34 16.36 -6 15 C-5.01 15.33 -4.02 15.66 -3 16 C-3 20.62 -3 25.24 -3 30 C-3.99 30 -4.98 30 -6 30 C-6.33 28.68 -6.66 27.36 -7 26 C-10.96 25.67 -14.92 25.34 -19 25 C-18.85973717 27.31284456 -18.71264442 29.62527591 -18.5625 31.9375 C-18.48128906 33.22527344 -18.40007813 34.51304688 -18.31640625 35.83984375 C-18.35080812 38.86023957 -18.35080812 38.86023957 -17 40 C-12.39012284 40.4439141 -8.27491981 40.55777742 -4 38.6875 C-1.78264147 36.97536603 -1.78264147 36.97536603 0 34 C1.65 34.33 3.3 34.66 5 35 C5 26.75 5 18.5 5 10 C4.01 9.67 3.02 9.34 2 9 C2 8.34 2 7.68 2 7 C7.28 7 12.56 7 18 7 C18 7.66 18 8.32 18 9 C16.68 9.33 15.36 9.66 14 10 C14 17.92 14 25.84 14 34 C17.63 34 21.26 34 25 34 C25.66 32.35 26.32 30.7 27 29 C27.66 29 28.32 29 29 29 C28.67 30.98 28.34 32.96 28 35 C29.98 35.495 29.98 35.495 32 36 C32 27.75 32 19.5 32 11 C30.35 10.34 28.7 9.68 27 9 C27 8.34 27 7.68 27 7 C30.66639248 6.88271874 34.3322952 6.81239109 38 6.75 C39.02996094 6.71648438 40.05992188 6.68296875 41.12109375 6.6484375 C47.63763239 6.56542427 52.59826591 7.16426553 58 11 C61.54711702 14.63579495 62.28578227 17.56629785 62.5 22.5 C62.29969749 27.4207651 61.42917072 30.30010527 58 34 C53.02818935 37.83243738 49.40880122 39.13013119 43.23144531 39.11352539 C42.29077209 39.11344986 41.35009888 39.11337433 40.38092041 39.11329651 C39.37349792 39.10813522 38.36607544 39.10297394 37.328125 39.09765625 C36.29057068 39.0962413 35.25301636 39.09482635 34.184021 39.09336853 C30.87265124 39.08777447 27.56134929 39.07522303 24.25 39.0625 C22.00390723 39.05748423 19.75781339 39.05292146 17.51171875 39.04882812 C12.0077894 39.03780699 6.50389954 39.02107474 1 39 C0.34 40.98 -0.32 42.96 -1 45 C-12.22 45 -23.44 45 -35 45 C-34.67 44.01 -34.34 43.02 -34 42 C-31.03 41.505 -31.03 41.505 -28 41 C-27.97519938 36.67668037 -27.95709242 32.35339894 -27.94506836 28.0300293 C-27.94005331 26.56062091 -27.93323967 25.09121748 -27.92456055 23.62182617 C-27.91237072 21.50438205 -27.90674331 19.38700417 -27.90234375 17.26953125 C-27.89448853 15.36071167 -27.89448853 15.36071167 -27.88647461 13.41333008 C-27.98460394 10.4629081 -28.30936165 7.86053325 -29 5 C-30.98 4.34 -32.96 3.68 -35 3 C-35 2.34 -35 1.68 -35 1 C-30.49765878 0.85698401 -25.99529866 0.7145839 -21.49291992 0.57275391 C-19.96133905 0.52442063 -18.42976347 0.47591922 -16.89819336 0.42724609 C-14.69646555 0.35730466 -12.49471939 0.28796838 -10.29296875 0.21875 C-9.60849167 0.19687622 -8.92401459 0.17500244 -8.21879578 0.15246582 C-5.47747521 0.06676924 -2.74289945 0 0 0 Z M39 10 C38.91321697 13.95819611 38.85968267 17.91614934 38.8125 21.875 C38.78736328 23.00292969 38.76222656 24.13085938 38.73632812 25.29296875 C38.72666016 26.36933594 38.71699219 27.44570313 38.70703125 28.5546875 C38.6913208 29.54968262 38.67561035 30.54467773 38.65942383 31.56982422 C38.82800903 32.77276123 38.82800903 32.77276123 39 34 C42.4256581 36.28377206 44.07346671 36.16282867 48.0625 35.546875 C50.90925882 34.74335436 52.27155022 33.3506917 54 31 C55.80038454 25.59884639 55.85842938 20.7828918 53.375 15.625 C50.70851439 12.6778317 48.73306202 11.34390233 45 10 C43.00048404 9.95600087 40.99937181 9.94987647 39 10 Z " fill="#000000" transform="translate(35,0)"/>
<path d="M0 0 C-0.33 4.29 -0.66 8.58 -1 13 C-1.66 13 -2.32 13 -3 13 C-3.66 10.36 -4.32 7.72 -5 5 C-10.70130649 3.57467338 -16.36451641 2.99066586 -21.9375 5.125 C-26.04615646 8.86014224 -27.67902176 13.54337 -28 19 C-27.33876887 24.73411371 -26.00096946 29.69126366 -22 34 C-17.15888629 36.43438861 -12.42301613 37.41715509 -7 37 C-7.01273347 33.24999436 -7.14178903 29.65954112 -8 26 C-10.87129568 23.6844676 -10.87129568 23.6844676 -14 23 C-14 22.34 -14 21.68 -14 21 C-8.06 21 -2.12 21 4 21 C4 21.99 4 22.98 4 24 C2.68 24 1.36 24 0 24 C0 27.96 0 31.92 0 36 C0.66 36 1.32 36 2 36 C2 36.99 2 37.98 2 39 C-6.64024562 41.513526 -15.08810018 41.18417244 -24 41 C-24 40.34 -24 39.68 -24 39 C-24.721875 38.773125 -25.44375 38.54625 -26.1875 38.3125 C-30.56625047 36.26908312 -33.09537795 33.31014228 -35.8125 29.375 C-37.97937753 23.21650598 -38.12494708 16.72267211 -35.4375 10.6875 C-32.51099964 5.65143755 -28.45875379 2.25796705 -23.3125 -0.375 C-15.59855149 -1.83046198 -7.71424124 -1.18680634 0 0 Z " fill="#000000" transform="translate(295,2)"/>
<path d="M0 0 C4.95 0 9.9 0 15 0 C14.67 0.99 14.34 1.98 14 3 C15.15645101 4.83577501 15.15645101 4.83577501 16.9375 6.625 C17.576875 7.31851562 18.21625 8.01203125 18.875 8.7265625 C19.57625 9.47679687 20.2775 10.22703125 21 11 C22.48301539 12.66324296 23.9622794 14.32983953 25.4375 16 C26.6246859 17.33361301 27.81206989 18.66704985 29 20 C29.02691685 17.54159395 29.04679802 15.08348118 29.0625 12.625 C29.07087891 11.92632812 29.07925781 11.22765625 29.08789062 10.5078125 C29.1835442 6.62704624 29.1835442 6.62704624 28 3 C25.97536745 2.34786708 25.97536745 2.34786708 24 2 C24 1.34 24 0.68 24 0 C28.62 0 33.24 0 38 0 C38 0.66 38 1.32 38 2 C37.01 2.33 36.02 2.66 35 3 C35.01160156 3.78503906 35.02320313 4.57007813 35.03515625 5.37890625 C35.08390978 11.05521037 34.83262352 16.37979124 34 22 C33.91624905 25.33525861 33.9395982 28.66447815 34 32 C30.35818477 31.42667654 28.71572695 30.06870972 26.1875 27.4375 C25.49527344 26.71949219 24.80304688 26.00148438 24.08984375 25.26171875 C21.5473508 22.51012358 19.06898196 19.71210503 16.640625 16.859375 C14.84692486 14.82651484 12.91701339 12.91701339 11 11 C11 16.94 11 22.88 11 29 C12.65 29 14.3 29 16 29 C16 29.99 16 30.98 16 32 C11.05 32 6.1 32 1 32 C1 31.01 1 30.02 1 29 C2.32 28.67 3.64 28.34 5 28 C5.33 20.41 5.66 12.82 6 5 C4.02 4.01 2.04 3.02 0 2 C0 1.34 0 0.68 0 0 Z " fill="#000000" transform="translate(222,7)"/>
<path d="M0 0 C4.95 0 9.9 0 15 0 C15 0.66 15 1.32 15 2 C14.01 2.495 14.01 2.495 13 3 C13.56847656 3.556875 14.13695312 4.11375 14.72265625 4.6875 C19.70853286 9.61511094 24.46795054 14.65189019 29 20 C29.02709444 17.91673869 29.04643873 15.83337559 29.0625 13.75 C29.07990234 12.00976562 29.07990234 12.00976562 29.09765625 10.234375 C29.01782092 7.59022872 28.78643778 5.50173909 28 3 C26.68 2.67 25.36 2.34 24 2 C24 1.34 24 0.68 24 0 C28.95 0 33.9 0 39 0 C39 0.66 39 1.32 39 2 C37.68 2.33 36.36 2.66 35 3 C34.67 12.57 34.34 22.14 34 32 C29.84712369 30.96178092 29.01423198 30.37937381 26.1875 27.4375 C25.49527344 26.71949219 24.80304688 26.00148438 24.08984375 25.26171875 C21.5473508 22.51012358 19.06898196 19.71210503 16.640625 16.859375 C14.84692486 14.82651484 12.91701339 12.91701339 11 11 C11 16.61 11 22.22 11 28 C13.475 28.99 13.475 28.99 16 30 C16 30.66 16 31.32 16 32 C11.05 32 6.1 32 1 32 C1 31.01 1 30.02 1 29 C2.32 28.67 3.64 28.34 5 28 C5 20.08 5 12.16 5 4 C2.525 3.01 2.525 3.01 0 2 C0 1.34 0 0.68 0 0 Z " fill="#000000" transform="translate(122,7)"/>
<path d="M0 0 C2.6881249 -0.08164159 5.373723 -0.14079668 8.0625 -0.1875 C8.81466797 -0.21263672 9.56683594 -0.23777344 10.34179688 -0.26367188 C15.67315049 -0.33291023 19.26644955 0.50960976 24 3 C26 5 26 5 26.4375 8.75 C26.35799743 13.590823 24.3405995 15.6594005 21 19 C22.26547013 20.62918007 23.53757728 22.25320642 24.8125 23.875 C25.52019531 24.77992187 26.22789062 25.68484375 26.95703125 26.6171875 C28.95587741 29.16602956 28.95587741 29.16602956 32 31 C32 31.66 32 32.32 32 33 C28.27296678 33.29231633 25.788819 33.45357092 22.5 31.5625 C19.55608465 28.54498677 17.05246548 25.31498094 14.55078125 21.92578125 C13.13484525 19.89402939 13.13484525 19.89402939 11 19 C11 22.63 11 26.26 11 30 C12.32 30.33 13.64 30.66 15 31 C15 31.66 15 32.32 15 33 C10.38 33 5.76 33 1 33 C1 32.34 1 31.68 1 31 C1.66 30.67 2.32 30.34 3 30 C3.47611811 26.90255099 3.47611811 26.90255099 3.625 23.1875 C3.66294678 22.518396 3.70089355 21.84929199 3.73999023 21.15991211 C4.0565985 15.10702265 4.10156414 9.05999374 4 3 C2.68 2.67 1.36 2.34 0 2 C0 1.34 0 0.68 0 0 Z M11 4 C11 7.63 11 11.26 11 15 C14.41642759 15.25015873 14.41642759 15.25015873 18 15 C20.38798682 12.09414313 20.38798682 12.09414313 19.6875 8.375 C19.35886877 5.17495688 19.35886877 5.17495688 18 4 C15.66702567 3.95907063 13.33294775 3.95758277 11 4 Z " fill="#000000" transform="translate(171,6)"/>
<path d="M0 0 C-0.33 2.64 -0.66 5.28 -1 8 C-1.66 8 -2.32 8 -3 8 C-3.33 7.01 -3.66 6.02 -4 5 C-7.3 4.67 -10.6 4.34 -14 4 C-14 7.63 -14 11.26 -14 15 C-9.545 14.505 -9.545 14.505 -5 14 C-5 13.01 -5 12.02 -5 11 C-4.01 11 -3.02 11 -2 11 C-2 14.63 -2 18.26 -2 22 C-2.99 21.67 -3.98 21.34 -5 21 C-5 20.01 -5 19.02 -5 18 C-7.97 18 -10.94 18 -14 18 C-13.67 21.63 -13.34 25.26 -13 29 C-6.75013093 28.86473135 -6.75013093 28.86473135 -1.5625 25.9375 C-1.046875 25.298125 -0.53125 24.65875 0 24 C0.66 24 1.32 24 2 24 C1.01 26.97 0.02 29.94 -1 33 C-8.92 33 -16.84 33 -25 33 C-25.33 32.01 -25.66 31.02 -26 30 C-24.35 29.67 -22.7 29.34 -21 29 C-21 20.75 -21 12.5 -21 4 C-22.32 3.67 -23.64 3.34 -25 3 C-25 2.34 -25 1.68 -25 1 C-21.39588419 0.83222143 -17.7916996 0.66596812 -14.1875 0.5 C-13.16333984 0.45230469 -12.13917969 0.40460937 -11.08398438 0.35546875 C-10.10107422 0.31035156 -9.11816406 0.26523438 -8.10546875 0.21875 C-7.19949951 0.17685547 -6.29353027 0.13496094 -5.36010742 0.09179688 C-3.57449311 0.02234503 -1.78696447 0 0 0 Z " fill="#000000" transform="translate(120,6)"/>
<path d="M0 0 C5.61 0 11.22 0 17 0 C17 0.66 17 1.32 17 2 C15.35 2.66 13.7 3.32 12 4 C10.87701079 12.46561098 11.19457011 20.51200811 12 29 C13.65 29 15.3 29 17 29 C17 29.99 17 30.98 17 32 C11.72 32 6.44 32 1 32 C0.67 31.01 0.34 30.02 0 29 C1.32 28.67 2.64 28.34 4 28 C4.06058594 26.86820313 4.12117187 25.73640625 4.18359375 24.5703125 C4.26799917 23.08852855 4.35264717 21.6067584 4.4375 20.125 C4.47681641 19.37863281 4.51613281 18.63226562 4.55664062 17.86328125 C4.88671875 12.2265625 4.88671875 12.2265625 6 10 C5.34 9.67 4.68 9.34 4 9 C4 8.34 4 7.68 4 7 C3.34 6.67 2.68 6.34 2 6 C2 5.34 2 4.68 2 4 C2.66 3.67 3.32 3.34 4 3 C2.68 2.67 1.36 2.34 0 2 C0 1.34 0 0.68 0 0 Z " fill="#000000" transform="translate(204,7)"/>
<path d="M0 0 C5.41139241 0.60126582 5.41139241 0.60126582 7.9375 2.3125 C9 4 9 4 8.6875 6.1875 C8.3471875 7.0846875 8.3471875 7.0846875 8 8 C4.22699642 6.9802693 3.19793856 6.34127338 1.1875 2.875 C0.795625 1.92625 0.40375 0.9775 0 0 Z " fill="#000000" transform="translate(59,196)"/>
<path d="M0 0 C1.98 0.99 1.98 0.99 4 2 C4 2.99 4 3.98 4 5 C4.99 5 5.98 5 7 5 C6.67 6.32 6.34 7.64 6 9 C5.01 9 4.02 9 3 9 C2.01 6.03 1.02 3.06 0 0 Z " fill="#000000" transform="translate(106,207)"/>
<path d="M0 0 C0 0.99 0 1.98 0 3 C-6.75 7 -6.75 7 -9 7 C-7.4576387 2.93377477 -4.5679954 0 0 0 Z " fill="#000000" transform="translate(206,65)"/>
<path d="M0 0 C0.99 0.33 1.98 0.66 3 1 C3.125 6.75 3.125 6.75 2 9 C1.34 9 0.68 9 0 9 C0 6.03 0 3.06 0 0 Z " fill="#000000" transform="translate(118,220)"/>
<path d="M0 0 C0.928125 0.7425 0.928125 0.7425 1.875 1.5 C3.83880904 3.19222773 3.83880904 3.19222773 6 3 C5.67 4.65 5.34 6.3 5 8 C2 7 2 7 0.3125 3.9375 C-0.120625 2.968125 -0.55375 1.99875 -1 1 C-0.67 0.67 -0.34 0.34 0 0 Z " fill="#000000" transform="translate(114,117)"/>
<path d="M0 0 C0.5775 0.37125 1.155 0.7425 1.75 1.125 C4 2.29166667 4 2.29166667 6.25 1.125 C6.8275 0.75375 7.405 0.3825 8 0 C6.63016497 3.16115776 6.0109362 3.9927092 3 6 C0 2.25 0 2.25 0 0 Z " fill="#000000" transform="translate(125,229)"/>
<path d="M0 0 C1.1725131 0.95117134 2.33787015 1.91117009 3.5 2.875 C4.47453125 3.67550781 4.47453125 3.67550781 5.46875 4.4921875 C5.9740625 4.98976562 6.479375 5.48734375 7 6 C7 6.66 7 7.32 7 8 C4.13792848 6.71700242 1.9754912 5.469364 0 3 C0 2.01 0 1.02 0 0 Z " fill="#000000" transform="translate(125,248)"/>
<path d="M0 0 C0 0.66 0 1.32 0 2 C-2.97 1.67 -5.94 1.34 -9 1 C-9 0.34 -9 -0.32 -9 -1 C-5.22102349 -2.0497157 -3.35080929 -2.10976881 0 0 Z " fill="#000000" transform="translate(114,127)"/>
<path d="M0 0 C1.98 0.99 1.98 0.99 4 2 C3.67 3.65 3.34 5.3 3 7 C2.01 7 1.02 7 0 7 C0 4.69 0 2.38 0 0 Z " fill="#000000" transform="translate(183,181)"/>
<path d="M0 0 C0.99 0.33 1.98 0.66 3 1 C3.6875 3.0625 3.6875 3.0625 4 5 C4.66 5 5.32 5 6 5 C6 5.66 6 6.32 6 7 C5.01 7 4.02 7 3 7 C0 2.77777778 0 2.77777778 0 0 Z " fill="#000000" transform="translate(56,188)"/>
<path d="M0 0 C0 0.66 0 1.32 0 2 C-0.639375 2.103125 -1.27875 2.20625 -1.9375 2.3125 C-2.618125 2.539375 -3.29875 2.76625 -4 3 C-4.33 3.99 -4.66 4.98 -5 6 C-5.66 6 -6.32 6 -7 6 C-4.84615385 0 -4.84615385 0 0 0 Z " fill="#000000" transform="translate(194,67)"/>
<path d="M0 0 C2.475 0.99 2.475 0.99 5 2 C5 2.99 5 3.98 5 5 C4.01 5.33 3.02 5.66 2 6 C0 3 0 3 0 0 Z " fill="#000000" transform="translate(193,147)"/>
<path d="M0 0 C0.99 0 1.98 0 3 0 C3 0.66 3 1.32 3 2 C3.99 2.33 4.98 2.66 6 3 C6 3.66 6 4.32 6 5 C4.68 4.67 3.36 4.34 2 4 C2 3.34 2 2.68 2 2 C1.34 2 0.68 2 0 2 C0 1.34 0 0.68 0 0 Z " fill="#000000" transform="translate(195,144)"/>
<path d="M0 0 C1.32 0 2.64 0 4 0 C4 1.65 4 3.3 4 5 C3.01 4.67 2.02 4.34 1 4 C0.3125 1.9375 0.3125 1.9375 0 0 Z " fill="#000000" transform="translate(115,135)"/>
<path d="M0 0 C2.375 0.25 2.375 0.25 5 1 C6.3125 3.0625 6.3125 3.0625 7 5 C1.125 2.25 1.125 2.25 0 0 Z " fill="#000000" transform="translate(96,66)"/>
<path d="M0 0 C0.66 0 1.32 0 2 0 C2.1875 2.375 2.1875 2.375 2 5 C1.01 5.66 0.02 6.32 -1 7 C-0.67 4.69 -0.34 2.38 0 0 Z " fill="#000000" transform="translate(94,144)"/>
<path d="M0 0 C0.99 0.33 1.98 0.66 3 1 C4.1875 3.5625 4.1875 3.5625 5 6 C3.0625 5.25 3.0625 5.25 1 4 C0.25 1.875 0.25 1.875 0 0 Z " fill="#000000" transform="translate(97,127)"/>
<path d="M0 0 C2.16874252 0.50603992 3.99967627 0.99983813 6 2 C5.67 2.99 5.34 3.98 5 5 C3.35 3.35 1.7 1.7 0 0 Z " fill="#000000" transform="translate(77,137)"/>
<path d="M0 0 C0.66 0 1.32 0 2 0 C2.33 1.65 2.66 3.3 3 5 C2.01 4.67 1.02 4.34 0 4 C0 2.68 0 1.36 0 0 Z " fill="#000000" transform="translate(190,212)"/>
<path d="M0 0 C0.99 0.33 1.98 0.66 3 1 C1.625 2.5 1.625 2.5 0 4 C-0.66 4 -1.32 4 -2 4 C-1.34 2.68 -0.68 1.36 0 0 Z " fill="#000000" transform="translate(210,62)"/>
<path d="M0 0 C1.32 0 2.64 0 4 0 C4 0.99 4 1.98 4 3 C2.68 2.67 1.36 2.34 0 2 C0 1.34 0 0.68 0 0 Z " fill="#000000" transform="translate(296,2)"/>
<path d="M0 0 C0.66 0 1.32 0 2 0 C1.34 1.32 0.68 2.64 0 4 C-0.66 4 -1.32 4 -2 4 C-1.34 2.68 -0.68 1.36 0 0 Z " fill="#000000" transform="translate(204,194)"/>
<path d="M0 0 C1.98 0.99 1.98 0.99 4 2 C4 2.66 4 3.32 4 4 C2.68 3.67 1.36 3.34 0 3 C0 2.01 0 1.02 0 0 Z " fill="#000000" transform="translate(113,138)"/>
<path d="M0 0 C1.98 0.99 1.98 0.99 4 2 C4 2.66 4 3.32 4 4 C2.68 3.34 1.36 2.68 0 2 C0 1.34 0 0.68 0 0 Z " fill="#000000" transform="translate(191,126)"/>
<path d="M0 0 C0 0.99 0 1.98 0 3 C-0.99 3.33 -1.98 3.66 -3 4 C-2.67 3.01 -2.34 2.02 -2 1 C-1.34 0.67 -0.68 0.34 0 0 Z " fill="#000000" transform="translate(95,155)"/>
<path d="M0 0 C0.99 0.33 1.98 0.66 3 1 C3 1.99 3 2.98 3 4 C2.34 4 1.68 4 1 4 C0.67 2.68 0.34 1.36 0 0 Z " fill="#000000" transform="translate(90,138)"/>
<path d="M0 0 C1.32 0.33 2.64 0.66 4 1 C4 1.66 4 2.32 4 3 C2.68 2.67 1.36 2.34 0 2 C0 1.34 0 0.68 0 0 Z " fill="#000000" transform="translate(105,70)"/>
<path d="M0 0 C0.99 0.33 1.98 0.66 3 1 C3.33 1.99 3.66 2.98 4 4 C2.68 3.34 1.36 2.68 0 2 C0 1.34 0 0.68 0 0 Z " fill="#000000" transform="translate(211,148)"/>
<path d="M0 0 C1.98 0.99 1.98 0.99 4 2 C3.01 2.33 2.02 2.66 1 3 C0.67 2.01 0.34 1.02 0 0 Z " fill="#000000" transform="translate(86,145)"/>
<path d="M0 0 C0.99 0.33 1.98 0.66 3 1 C3 1.66 3 2.32 3 3 C2.01 3 1.02 3 0 3 C0 2.01 0 1.02 0 0 Z " fill="#000000" transform="translate(102,127)"/>
<path d="M0 0 C1.32 0.33 2.64 0.66 4 1 C4 1.66 4 2.32 4 3 C2.68 2.34 1.36 1.68 0 1 C0 0.67 0 0.34 0 0 Z " fill="#000000" transform="translate(177,123)"/>
<path d="M0 0 C0.99 0 1.98 0 3 0 C3 0.99 3 1.98 3 3 C2.01 2.67 1.02 2.34 0 2 C0 1.34 0 0.68 0 0 Z " fill="#000000" transform="translate(92,76)"/>
<path d="M0 0 C0.99 0.33 1.98 0.66 3 1 C2.67 1.99 2.34 2.98 2 4 C1.34 2.68 0.68 1.36 0 0 Z " fill="#000000" transform="translate(114,215)"/>
<path d="M0 0 C0.99 0.33 1.98 0.66 3 1 C3 1.66 3 2.32 3 3 C2.01 2.67 1.02 2.34 0 2 C0 1.34 0 0.68 0 0 Z " fill="#000000" transform="translate(191,172)"/>
<path d="M0 0 C0.99 0 1.98 0 3 0 C2.67 0.99 2.34 1.98 2 3 C1.34 2.67 0.68 2.34 0 2 C0 1.34 0 0.68 0 0 Z " fill="#000000" transform="translate(66,150)"/>
<path d="M0 0 C0.66 0 1.32 0 2 0 C1.67 0.99 1.34 1.98 1 3 C0.34 3 -0.32 3 -1 3 C-0.67 2.01 -0.34 1.02 0 0 Z " fill="#000000" transform="translate(197,136)"/>
<path d="M0 0 C0.99 0 1.98 0 3 0 C2.67 0.99 2.34 1.98 2 3 C1.34 2.67 0.68 2.34 0 2 C0 1.34 0 0.68 0 0 Z " fill="#000000" transform="translate(188,128)"/>
<path d="M0 0 C0.66 0 1.32 0 2 0 C1.67 0.99 1.34 1.98 1 3 C0.34 3 -0.32 3 -1 3 C-0.67 2.01 -0.34 1.02 0 0 Z " fill="#000000" transform="translate(205,118)"/>
<path d="M0 0 C0.99 0.33 1.98 0.66 3 1 C3 1.66 3 2.32 3 3 C2.01 3 1.02 3 0 3 C0 2.01 0 1.02 0 0 Z " fill="#000000" transform="translate(55,110)"/>
<path d="M0 0 C0.99 0.33 1.98 0.66 3 1 C2.67 1.99 2.34 2.98 2 4 C1.34 2.68 0.68 1.36 0 0 Z " fill="#000000" transform="translate(177,99)"/>
<path d="M0 0 C0.33 0.99 0.66 1.98 1 3 C0.01 3 -0.98 3 -2 3 C-2 2.34 -2 1.68 -2 1 C-1.34 0.67 -0.68 0.34 0 0 Z " fill="#000000" transform="translate(107,61)"/>
<path d="M0 0 C0.66 0 1.32 0 2 0 C2 0.99 2 1.98 2 3 C1.34 3 0.68 3 0 3 C0 2.01 0 1.02 0 0 Z " fill="#000000" transform="translate(91,198)"/>
<path d="M0 0 C0.99 0 1.98 0 3 0 C3 0.66 3 1.32 3 2 C2.01 2 1.02 2 0 2 C0 1.34 0 0.68 0 0 Z " fill="#000000" transform="translate(221,173)"/>
<path d="M0 0 C0.99 0.33 1.98 0.66 3 1 C3 1.66 3 2.32 3 3 C2.01 2.67 1.02 2.34 0 2 C0 1.34 0 0.68 0 0 Z " fill="#000000" transform="translate(90,160)"/>
<path d="M0 0 C0.99 0.99 1.98 1.98 3 3 C2.01 3 1.02 3 0 3 C0 2.01 0 1.02 0 0 Z " fill="#000000" transform="translate(96,149)"/>
<path d="M0 0 C0.99 0.33 1.98 0.66 3 1 C2.34 1.66 1.68 2.32 1 3 C0.67 2.01 0.34 1.02 0 0 Z " fill="#000000" transform="translate(195,131)"/>
<path d="M0 0 C0.66 0 1.32 0 2 0 C2 0.66 2 1.32 2 2 C1.01 2.33 0.02 2.66 -1 3 C-0.67 2.01 -0.34 1.02 0 0 Z " fill="#000000" transform="translate(207,110)"/>
<path d="M0 0 C0.99 0 1.98 0 3 0 C3 0.66 3 1.32 3 2 C2.01 2 1.02 2 0 2 C0 1.34 0 0.68 0 0 Z " fill="#000000" transform="translate(171,82)"/>
<path d="M0 0 C0.66 0 1.32 0 2 0 C2 0.99 2 1.98 2 3 C1.34 3 0.68 3 0 3 C0 2.01 0 1.02 0 0 Z " fill="#000000" transform="translate(185,67)"/>
<path d="M0 0 C0.66 0 1.32 0 2 0 C2 0.99 2 1.98 2 3 C1.34 3 0.68 3 0 3 C0 2.01 0 1.02 0 0 Z " fill="#000000" transform="translate(94,55)"/>
<path d="M0 0 C0.66 0 1.32 0 2 0 C2 0.99 2 1.98 2 3 C1.34 3 0.68 3 0 3 C0 2.01 0 1.02 0 0 Z " fill="#000000" transform="translate(121,49)"/>
<path d="M0 0 C0.99 0.495 0.99 0.495 2 1 C2 1.66 2 2.32 2 3 C1.34 3 0.68 3 0 3 C0 2.01 0 1.02 0 0 Z " fill="#000000" transform="translate(180,228)"/>
<path d="M0 0 C0.99 0.33 1.98 0.66 3 1 C2.01 1.33 1.02 1.66 0 2 C0 1.34 0 0.68 0 0 Z " fill="#000000" transform="translate(234,147)"/>
<path d="M0 0 C0.99 0.495 0.99 0.495 2 1 C2 1.66 2 2.32 2 3 C1.34 3 0.68 3 0 3 C0 2.01 0 1.02 0 0 Z " fill="#000000" transform="translate(106,141)"/>
<path d="M0 0 C0.99 0.33 1.98 0.66 3 1 C2.01 1.33 1.02 1.66 0 2 C0 1.34 0 0.68 0 0 Z " fill="#000000" transform="translate(103,131)"/>
<path d="M0 0 C0.33 0.99 0.66 1.98 1 3 C0.34 3 -0.32 3 -1 3 C-0.67 2.01 -0.34 1.02 0 0 Z " fill="#000000" transform="translate(61,79)"/>
<path d="M0 0 C0.99 0 1.98 0 3 0 C3 0.66 3 1.32 3 2 C2.01 1.67 1.02 1.34 0 1 C0 0.67 0 0.34 0 0 Z " fill="#000000" transform="translate(93,63)"/>
<path d="M0 0 C0.66 0 1.32 0 2 0 C2 0.66 2 1.32 2 2 C1.34 2 0.68 2 0 2 C0 1.34 0 0.68 0 0 Z " fill="#000000" transform="translate(122,246)"/>
<path d="M0 0 C0.66 0 1.32 0 2 0 C2 0.66 2 1.32 2 2 C1.34 2 0.68 2 0 2 C0 1.34 0 0.68 0 0 Z " fill="#000000" transform="translate(141,220)"/>
<path d="M0 0 C0.66 0 1.32 0 2 0 C2 0.66 2 1.32 2 2 C1.34 2 0.68 2 0 2 C0 1.34 0 0.68 0 0 Z " fill="#000000" transform="translate(93,214)"/>
<path d="M0 0 C0.66 0 1.32 0 2 0 C2 0.66 2 1.32 2 2 C1.34 2 0.68 2 0 2 C0 1.34 0 0.68 0 0 Z " fill="#000000" transform="translate(202,158)"/>
<path d="M0 0 C0.66 0 1.32 0 2 0 C2 0.66 2 1.32 2 2 C1.34 2 0.68 2 0 2 C0 1.34 0 0.68 0 0 Z " fill="#000000" transform="translate(169,149)"/>
<path d="M0 0 C0.66 0 1.32 0 2 0 C2 0.66 2 1.32 2 2 C1.34 2 0.68 2 0 2 C0 1.34 0 0.68 0 0 Z " fill="#000000" transform="translate(109,131)"/>
<path d="M0 0 C0.66 0 1.32 0 2 0 C2 0.66 2 1.32 2 2 C1.34 2 0.68 2 0 2 C0 1.34 0 0.68 0 0 Z " fill="#000000" transform="translate(116,130)"/>
<path d="M0 0 C0.66 0 1.32 0 2 0 C2 0.66 2 1.32 2 2 C1.34 2 0.68 2 0 2 C0 1.34 0 0.68 0 0 Z " fill="#000000" transform="translate(103,111)"/>
</svg>
