<?xml version="1.0" encoding="UTF-8"?>
<svg version="1.1" xmlns="http://www.w3.org/2000/svg" width="300" height="272">
<path d="M0 0 C6.00072998 0.33273352 10.46480162 0.66636599 15 5 C20.02565967 12.9203411 24 22.49546252 24 32 C24.52464844 31.83757813 25.04929687 31.67515625 25.58984375 31.5078125 C28.62100929 30.86915526 31.46597753 30.86795444 34.5625 30.875 C35.69816406 30.87242188 36.83382812 30.86984375 38.00390625 30.8671875 C41 31 41 31 44 32 C44.25394531 30.84242187 44.50789062 29.68484375 44.76953125 28.4921875 C45.11677954 26.9530329 45.46445867 25.41397547 45.8125 23.875 C45.97814453 23.11445313 46.14378906 22.35390625 46.31445312 21.5703125 C47.82027193 14.97880379 49.63225719 9.68245429 55 5.25 C55.680625 4.67765625 56.36125 4.1053125 57.0625 3.515625 C60.6319529 0.72339169 62.48814987 -0.24388379 67 0 C66.92523438 1.0003125 66.85046875 2.000625 66.7734375 3.03125 C67.0325248 7.56974474 68.47291882 10.61462101 70.625 14.5 C71.36120824 15.90393199 72.09288663 17.31024752 72.8203125 18.71875 C73.18672852 19.42773438 73.55314453 20.13671875 73.93066406 20.8671875 C75.59582048 24.18837619 77.08185932 27.56706722 78.5 31 C78.9846875 32.155 79.469375 33.31 79.96875 34.5 C81.99862945 41.38928785 81.47104621 46.00430322 78.25390625 52.24414062 C77.88136719 52.92669922 77.50882813 53.60925781 77.125 54.3125 C76.57779297 55.3653418 76.57779297 55.3653418 76.01953125 56.43945312 C74.46226458 59.40958538 72.86358337 62.20462494 71 65 C70.93836663 66.99188764 70.93836663 66.99188764 71.3125 69.125 C71.47492188 70.30255859 71.47492188 70.30255859 71.640625 71.50390625 C71.75921875 72.32761719 71.8778125 73.15132813 72 74 C72.19336306 75.68683823 72.38114821 77.3743282 72.5625 79.0625 C72.7790625 81.0115625 72.7790625 81.0115625 73 83 C73.66386719 83.19335938 74.32773438 83.38671875 75.01171875 83.5859375 C75.89472656 83.84632812 76.77773437 84.10671875 77.6875 84.375 C78.99267578 84.75785156 78.99267578 84.75785156 80.32421875 85.1484375 C82.94208453 85.98156851 85.46291773 86.94859654 88 88 C86.50158936 98.60069618 84.02127874 108.96847198 81.6015625 119.38818359 C80.71123106 123.2537541 79.85464596 127.12639634 79 131 C79.83789062 131.27070313 80.67578125 131.54140625 81.5390625 131.8203125 C84.52986699 132.8397515 87.464714 133.95155474 90.40527344 135.10595703 C97.43113579 137.84907384 104.36788141 140.04441519 111.77099609 141.53076172 C115.993341 142.45158649 118.35503484 143.55221012 121 147 C122.01953125 149.15625 122.01953125 149.15625 122.8125 151.5 C125.19063352 157.78638396 128.42836056 163.32237395 132 169 C132.64710938 170.13179687 133.29421875 171.26359375 133.9609375 172.4296875 C134.65445313 173.52539062 135.34796875 174.62109375 136.0625 175.75 C136.67222656 176.75546875 137.28195313 177.7609375 137.91015625 178.796875 C143.12198444 182.51302051 148.83905555 181.4212818 155 181 C155.77191681 180.95178101 156.54383362 180.90356201 157.33914185 180.85388184 C163.39830838 180.46899077 169.44875079 179.99215946 175.5 179.5 C178.19724105 179.28408547 180.89459122 179.06977431 183.59216309 178.85803223 C185.25521715 178.72715727 186.91807578 178.59376502 188.58068848 178.45739746 C189.33587769 178.39733521 190.09106689 178.33727295 190.86914062 178.27539062 C191.52418579 178.22209595 192.17923096 178.16880127 192.85412598 178.1138916 C195.56586601 177.96996684 198.28444328 178 201 178 C201 208.69 201 239.38 201 271 C181.69739963 269.86455292 181.69739963 269.86455292 174.953125 269.31640625 C164.30650565 268.47921137 153.65522123 267.71916562 143 267 C142.17167664 266.94352295 141.34335327 266.8870459 140.4899292 266.82885742 C70.54323782 262.12234882 -0.20339605 264.06998599 -69.984375 270.09765625 C-70.86658218 270.17365555 -71.74878937 270.24965485 -72.6577301 270.32795715 C-76.616095 270.67605439 -80.55774099 271.06535266 -84.50097656 271.55639648 C-89.31291176 272.03085309 -94.16473068 272 -99 272 C-99 240.32 -99 208.64 -99 176 C-80.61164825 177.14927198 -80.61164825 177.14927198 -72.25 177.75390625 C-71.34040527 177.81907944 -70.43081055 177.88425262 -69.49365234 177.95140076 C-66.66238533 178.15441714 -63.8311916 178.35843485 -61 178.5625 C-59.04948399 178.70254121 -57.09896319 178.84251557 -55.1484375 178.98242188 C-50.43223614 179.32084636 -45.71610008 179.66016714 -41 180 C-40.79721436 179.24074219 -40.59442871 178.48148438 -40.38549805 177.69921875 C-40.11777588 176.70535156 -39.85005371 175.71148437 -39.57421875 174.6875 C-39.17722778 173.20830078 -39.17722778 173.20830078 -38.7722168 171.69921875 C-38 169 -38 169 -36.8125 166 C-35.75626791 162.10006612 -35.94716216 158.50630502 -36.125 154.48828125 C-36 152 -36 152 -34 149 C-31.1640625 148.04296875 -31.1640625 148.04296875 -27.625 147.1875 C-20.17093246 145.18388349 -11.79202744 142.84572546 -6.24145508 137.21655273 C-4.71397148 135.05871684 -4.71397148 135.05871684 -5.50146484 132.60571289 C-5.90059082 131.7368042 -6.2997168 130.86789551 -6.7109375 129.97265625 C-7.13117188 129.01552734 -7.55140625 128.05839844 -7.984375 127.07226562 C-8.44328125 126.07904297 -8.9021875 125.08582031 -9.375 124.0625 C-10.26974581 122.10045027 -11.15304655 120.13313086 -12.0234375 118.16015625 C-12.42481934 117.29011963 -12.82620117 116.42008301 -13.23974609 115.52368164 C-14.1318989 112.56215835 -13.92581027 110.92693476 -13 108 C-11.29296875 105.90234375 -11.29296875 105.90234375 -9.1875 103.9375 C-8.50042969 103.28652344 -7.81335938 102.63554688 -7.10546875 101.96484375 C-6.41066406 101.31644531 -5.71585937 100.66804688 -5 100 C-3.6620531 98.67129625 -2.32735435 97.33928562 -1 96 C-1.474375 95.34 -1.94875 94.68 -2.4375 94 C-5.38082178 88.34882218 -5.06611863 82.26612249 -4.83325195 76.04736328 C-4.49269015 66.13811336 -5.86249494 59.98231879 -11.55395508 51.75317383 C-14.19573273 46.72340402 -13.70060321 41.52482334 -13 36 C-11.61807944 31.7480908 -9.70108665 27.88984997 -7.625 23.9375 C-3.51473966 15.96213444 -0.97444363 8.96349213 0 0 Z M6 6 C5.81566406 6.680625 5.63132812 7.36125 5.44140625 8.0625 C3.20510452 15.53671732 0.05705281 21.87529465 -3.91381836 28.56640625 C-7.29420758 34.29023803 -9.04101817 39.27342105 -8 46 C-6.131142 50.93551688 -4.45371241 55.0308584 0 58 C2.27369373 52.82103095 1.61627497 50.29779016 0 45 C-1.51085262 35.8416218 2.66650247 26.54401427 6.1640625 18.234375 C7.17520279 15.92930571 7.17520279 15.92930571 7 13 C12.85313302 18.47551153 12.23454657 23.62711122 12.5234375 31.3359375 C13.0461464 35.35479774 14.11077697 38.11077697 17 41 C18.99958364 41.04080783 21.00045254 41.04254356 23 41 C23 41.66 23 42.32 23 43 C22.319375 43.061875 21.63875 43.12375 20.9375 43.1875 C15.53016184 44.68314673 11.97036709 47.35037595 9.125 52.1875 C7.76578528 56.79372767 7.27892229 61.21984903 7 66 C9.81711646 68.12821884 9.81711646 68.12821884 13 70 C14.485 69.505 14.485 69.505 16 69 C15.67 67.989375 15.34 66.97875 15 65.9375 C13.80864062 62.28896189 13.92673041 58.8145978 14 55 C15.63424183 56.55283125 17.25706248 58.1176881 18.875 59.6875 C19.77992187 60.55761719 20.68484375 61.42773438 21.6171875 62.32421875 C25.26142729 66.4165208 26.25875874 69.87612779 26.1953125 75.30078125 C26.18886719 76.27724609 26.18242188 77.25371094 26.17578125 78.25976562 C26.15902344 79.26716797 26.14226562 80.27457031 26.125 81.3125 C26.11597656 82.33923828 26.10695312 83.36597656 26.09765625 84.42382812 C26.07416201 86.94945899 26.04131131 89.4746081 26 92 C25.34 92 24.68 92 24 92 C23.87625 91.13375 23.87625 91.13375 23.75 90.25 C22.75088848 87.25266543 21.44965971 85.98621058 19 84 C14.75384774 82.20718016 10.56152227 81.54738267 6 81 C5.5978125 79.5459375 5.5978125 79.5459375 5.1875 78.0625 C4.795625 77.051875 4.40375 76.04125 4 75 C3.01 74.67 2.02 74.34 1 74 C-0.3271261 77.9813783 -0.06915913 81.85045227 0 86 C1.19625 86.495 2.3925 86.99 3.625 87.5 C8.57110385 89.96431323 11.05736457 93.436272 14 98 C17.50746594 103.4242475 17.50746594 103.4242475 22 108 C24.51429664 108.59356619 24.51429664 108.59356619 27.24609375 108.49609375 C28.74946289 108.49706055 28.74946289 108.49706055 30.28320312 108.49804688 C31.32412109 108.47806641 32.36503906 108.45808594 33.4375 108.4375 C34.47455078 108.44458984 35.51160156 108.45167969 36.58007812 108.45898438 C43.88420782 108.53559709 43.88420782 108.53559709 50 105 C52.01048346 102.12238629 53.77280437 99.22000794 55.51757812 96.18164062 C58.64567999 90.98290143 62.11345843 87.96218052 68 86 C68 82.04 68 78.08 68 74 C66.68 74.33 65.36 74.66 64 75 C64 76.98 64 78.96 64 81 C63.20335937 81.09796875 62.40671875 81.1959375 61.5859375 81.296875 C54.85748487 82.246389 49.91840485 83.08159515 45 88 C44.95936168 89.66617115 44.957279 91.33388095 45 93 C44.34 93 43.68 93 43 93 C42.7762431 90.00044803 42.57064751 87.00141072 42.375 84 C42.31054688 83.16082031 42.24609375 82.32164063 42.1796875 81.45703125 C41.7704105 74.85743968 41.99639871 68.97085709 45.8125 63.3125 C47.42215401 61.61086576 49.07479017 59.94963688 50.75 58.3125 C53.23245165 56.29883759 53.23245165 56.29883759 53 54 C53.66 54 54.32 54 55 54 C54.69075786 56.10464793 54.3774944 58.2087053 54.0625 60.3125 C53.88847656 61.48425781 53.71445313 62.65601563 53.53515625 63.86328125 C53 67 53 67 52 70 C56.7517398 69.56802365 58.92000054 68.67230705 62 65 C61.34 65 60.68 65 60 65 C60.226875 64.175 60.45375 63.35 60.6875 62.5 C61.19877345 56.77373738 59.12646474 52.2089422 55.75 47.625 C52.42442871 44.45059104 50.43301587 43.8692188 46 43 C46 42.34 46 41.68 46 41 C46.928125 41.103125 47.85625 41.20625 48.8125 41.3125 C52.07274623 41.36624179 52.07274623 41.36624179 53.62890625 39.078125 C55.48982078 34.90034537 55.77337875 30.96376179 56.125 26.4375 C56.27098018 24.74848373 56.41933387 23.05967055 56.5703125 21.37109375 C56.62977051 20.62786865 56.68922852 19.88464355 56.75048828 19.11889648 C56.99871874 17.01088069 57.43963827 15.04511791 58 13 C61 14 61 14 61.9831543 15.86669922 C62.90228566 18.53097955 63.81106937 21.19630597 64.6875 23.875 C65.00783203 24.77992187 65.32816406 25.68484375 65.65820312 26.6171875 C68.14098293 34.07082069 69.50125841 41.66303126 66.875 49.25 C65.68010664 53.00537913 66.69296599 55.36934997 68 59 C72.51574834 55.12935857 75.4274531 50.50398701 76.390625 44.609375 C76.86515202 33.83083271 71.18603874 25.27883754 65.8046875 16.39453125 C63.93427837 12.87638074 62.94775982 9.84477824 62 6 C57.78362214 7.87394571 55.8950392 10.18047979 53.96875 14.34375 C52.27288697 18.99369703 51.16204951 23.79783297 50.02734375 28.609375 C48.42889658 33.88485843 48.42889658 33.88485843 46 36 C43.25 36.13671875 43.25 36.13671875 40 35.6875 C33.81637007 34.99348991 28.15596937 35.19812022 22 36 C18.49942876 30.97172281 17.43834873 25.55359896 16.0703125 19.68164062 C14.69216175 14.26423882 12.99887366 10.95554221 9 7 C8.01 6.67 7.02 6.34 6 6 Z M4 53 C5 55 5 55 5 55 Z M64 55 C64 56.98 64 58.96 64 61 C64.33 61 64.66 61 65 61 C65 59.02 65 57.04 65 55 C64.67 55 64.34 55 64 55 Z M3 57 C3.33 58.32 3.66 59.64 4 61 C4.33 60.34 4.66 59.68 5 59 C4.34 58.34 3.68 57.68 3 57 Z M65 61 C65 63.31 65 65.62 65 68 C65.33 68 65.66 68 66 68 C66 65.69 66 63.38 66 61 C65.67 61 65.34 61 65 61 Z M3 69 C4 73 4 73 4 73 Z M13 75 C14.450954 78.82524236 16.38181932 80.19090966 20 82 C20.66 82 21.32 82 22 82 C20.549046 78.17475764 18.61818068 76.80909034 15 75 C14.34 75 13.68 75 13 75 Z M48 78 C46.57442644 80.55721737 46.57442644 80.55721737 46 83 C47.2964351 82.23721377 48.58699148 81.46443041 49.875 80.6875 C50.59429687 80.25824219 51.31359375 79.82898438 52.0546875 79.38671875 C54.26846333 77.98247625 54.26846333 77.98247625 56 75 C52.77930455 75 50.71946023 76.35699278 48 78 Z M73 87 C72.34 88.65 71.68 90.3 71 92 C73.97 92.99 76.94 93.98 80 95 C80.99 93.35 81.98 91.7 83 90 C78.18790099 87.70954986 78.18790099 87.70954986 73 87 Z M7 93 C6.46209983 96.65105688 6.2380788 98.83310143 8.29345703 101.98095703 C10.14233562 104.09521994 12.06714934 106.08595566 14.0625 108.0625 C15.04766602 109.0844043 15.04766602 109.0844043 16.05273438 110.12695312 C23.44413832 118.41852795 23.44413832 118.41852795 33.0625 123.125 C38.86246499 122.94087413 42.1534527 120.02820223 46.03515625 115.94140625 C47.05076694 114.82095833 48.05983184 113.69454469 49.0625 112.5625 C50.07321622 111.43790026 51.08492339 110.31419029 52.09765625 109.19140625 C52.58097412 108.6497583 53.06429199 108.10811035 53.56225586 107.55004883 C54.91653609 106.08998342 56.36659819 104.72047039 57.8203125 103.359375 C60.08438625 100.90865718 60.64705814 99.94118988 60.8125 96.6875 C60.874375 95.470625 60.93625 94.25375 61 93 C57.07521339 96.57848191 54.35776524 100.38596656 51.4921875 104.84765625 C50.15477632 106.77674933 48.81880537 108.32503556 47.125 109.9375 C46.073125 110.9584375 46.073125 110.9584375 45 112 C45 112.66 45 113.32 45 114 C43.68 114.33 42.36 114.66 41 115 C41 113.68 41 112.36 41 111 C36.38 111 31.76 111 27 111 C27 112.32 27 113.64 27 115 C26.278125 114.2575 25.55625 113.515 24.8125 112.75 C22.17547571 110.037361 22.17547571 110.037361 19.5859375 108.25 C16.56495957 105.6214754 14.75319478 102.69255799 12.8125 99.25 C11.59688234 97.11179493 10.3492944 95.06117378 9 93 C8.34 93 7.68 93 7 93 Z M69 95 C66.69 98.3 64.38 101.6 62 105 C62.99 105.495 62.99 105.495 64 106 C66.65325806 104.65692087 66.65325806 104.65692087 69.5 102.75 C70.96953125 101.81414062 70.96953125 101.81414062 72.46875 100.859375 C75.19393855 99.07979385 75.19393855 99.07979385 77 96 C74.36 95.67 71.72 95.34 69 95 Z M78.25 99.5 C73.86290381 103.37419977 68.8688428 106.1163819 63.79296875 108.97265625 C60.78135817 111.15870645 59.9617847 112.46528806 59 116 C61.54425853 114.7550659 64.08534361 113.50426112 66.625 112.25 C67.33785156 111.90195313 68.05070313 111.55390625 68.78515625 111.1953125 C73.08149073 109.06685322 77.20748009 106.9497377 81 104 C81.97350778 100.3634269 81.97350778 100.3634269 82 97 C80.50390381 96.88788787 80.50390381 96.88788787 78.25 99.5 Z M-3.5 103.3125 C-4.69109375 104.23482422 -4.69109375 104.23482422 -5.90625 105.17578125 C-8.19634813 107.00965716 -8.19634813 107.00965716 -10 110 C-10 110.99 -10 111.98 -10 113 C-9.01 113.33 -8.02 113.66 -7 114 C-3.37 110.04 0.26 106.08 4 102 C3.67 101.34 3.34 100.68 3 100 C0.05699033 100 -1.21057201 101.51738033 -3.5 103.3125 Z M0.9375 107.6875 C0.22464844 108.37199219 -0.48820312 109.05648437 -1.22265625 109.76171875 C-3.28279505 112.35613531 -3.95008453 113.6856129 -4 117 C-2.60932794 119.97943052 -2.60932794 119.97943052 -0.5625 122.8125 C0.09621094 123.78832031 0.75492187 124.76414062 1.43359375 125.76953125 C1.95050781 126.50558594 2.46742187 127.24164063 3 128 C3.99 127.67 4.98 127.34 6 127 C5.71125 126.319375 5.4225 125.63875 5.125 124.9375 C4.97598627 121.43567737 5.53358287 120.94626223 7.75 118.375 C9.78032035 116.19684079 11.8882149 114.0990635 14 112 C12.88200014 110.66079162 11.75538103 109.32877444 10.625 108 C9.99851562 107.2575 9.37203125 106.515 8.7265625 105.75 C8.15679687 105.1725 7.58703125 104.595 7 104 C4.00180596 104 3.03858089 105.62455125 0.9375 107.6875 Z M60 106 C59.67 106.66 59.34 107.32 59 108 C59.99 107.67 60.98 107.34 62 107 C61.34 106.67 60.68 106.34 60 106 Z M57 109 C56.67 110.32 56.34 111.64 56 113 C56.66 111.68 57.32 110.36 58 109 C57.67 109 57.34 109 57 109 Z M52 113 C51.08063396 114.40150915 50.19006349 115.82194393 49.3125 117.25 C45.84007311 122.50824643 42.73426374 125.31643406 36.5 126.875 C29.0202543 127.14213377 24.57409338 123.49888755 19 119 C18.67 119.99 18.34 120.98 18 122 C19.21430789 124.04212053 19.21430789 124.04212053 21.0625 126 C21.65160156 126.680625 22.24070312 127.36125 22.84765625 128.0625 C25.5059113 130.45541199 27.60974549 131.80607624 31 133 C33.95425644 132.65438506 36.16893278 132.22242816 38.9375 131.3125 C39.99602173 130.9731543 39.99602173 130.9731543 41.07592773 130.62695312 C46.7876128 128.55359222 49.87778332 125.68882463 53.12890625 120.5 C54.1517954 117.56435401 53.87761414 115.94289773 53 113 C52.67 113 52.34 113 52 113 Z M12.39453125 117.53125 C11.87246094 118.1809375 11.35039063 118.830625 10.8125 119.5 C10.28269531 120.1496875 9.75289063 120.799375 9.20703125 121.46875 C8.80871094 121.9740625 8.41039063 122.479375 8 123 C9.485 123.99 9.485 123.99 11 125 C12.13500977 127.42675781 12.13500977 127.42675781 13.19140625 130.453125 C13.77245117 132.09474609 13.77245117 132.09474609 14.36523438 133.76953125 C14.76033203 134.91808594 15.15542969 136.06664062 15.5625 137.25 C15.96146484 138.38308594 16.36042969 139.51617187 16.77148438 140.68359375 C18.55900833 145.77460522 20.30072844 150.87885545 22 156 C23.23312273 152.4501329 22.74842853 150.11761228 21.78515625 146.52734375 C21.51123047 145.46193359 21.23730469 144.39652344 20.95507812 143.29882812 C20.36706543 141.0844521 19.77599429 138.87088562 19.18164062 136.65820312 C17.37893105 129.62045871 16.59932528 123.26211577 17 116 C13.99204833 115.65490872 13.99204833 115.65490872 12.39453125 117.53125 Z M58 116 C59 118 59 118 59 118 Z M-8 118 C-7.67 118.99 -7.34 119.98 -7 121 C-6.01 120.67 -5.02 120.34 -4 120 C-5.32 119.34 -6.64 118.68 -8 118 Z M56 119 C57 121 57 121 57 121 Z M55 121 C56 123 56 123 56 123 Z M54 123 C54 126 54 126 54 126 Z M52 126 C53 128 53 128 53 128 Z M51 128 C49.36405302 130.51428752 47.74130678 133.03562921 46.125 135.5625 C45.43470703 136.61920898 45.43470703 136.61920898 44.73046875 137.69726562 C40.06882293 145.01362707 40.06882293 145.01362707 39.375 153.4375 C39.684375 154.2109375 39.684375 154.2109375 40 155 C41.32 154.67 42.64 154.34 44 154 C43.50554591 161.78765186 41.38872478 167.36020577 37.84765625 174.23828125 C37.48542969 174.94339844 37.12320313 175.64851563 36.75 176.375 C36.41484375 177.00148437 36.0796875 177.62796875 35.734375 178.2734375 C34.80429743 180.14740042 34.80429743 180.14740042 35 183 C37.64 183 40.28 183 43 183 C43.07516846 182.42668945 43.15033691 181.85337891 43.2277832 181.26269531 C46.02207047 160.20099264 46.02207047 160.20099264 49 150 C46.69 150.66 44.38 151.32 42 152 C44.54483306 145.23373799 47.52883639 138.85138732 50.92578125 132.46875 C51.45751953 131.24671875 51.45751953 131.24671875 52 130 C51.67 129.34 51.34 128.68 51 128 Z M6 130 C4.66886715 133.97309685 5.6578833 136.06976196 7.51171875 139.79492188 C7.87910156 140.50197266 8.24648437 141.20902344 8.625 141.9375 C8.96917969 142.64068359 9.31335938 143.34386719 9.66796875 144.06835938 C11.91786241 148.49757807 14.29966275 151.68268012 18 155 C17.07116 149.74700976 15.17516107 145.15128111 13.125 140.25 C12.59712891 138.93708984 12.59712891 138.93708984 12.05859375 137.59765625 C11.71183594 136.76621094 11.36507812 135.93476563 11.0078125 135.078125 C10.69473145 134.31918945 10.38165039 133.56025391 10.05908203 132.77832031 C9.05758376 130.65626346 9.05758376 130.65626346 6 130 Z M21 131 C21.68738449 137.63681576 23.04171834 144.00792369 24.5625 150.5 C24.79646484 151.51320312 25.03042969 152.52640625 25.27148438 153.5703125 C25.84409382 156.04772479 26.42034015 158.52422965 27 161 C30.58017981 156.80512574 33.30863162 152.31467766 36.0625 147.5625 C36.49626953 146.82451172 36.93003906 146.08652344 37.37695312 145.32617188 C39.73753265 141.28408365 41.96151866 137.21731713 44 133 C43.07058594 133.26296875 42.14117187 133.5259375 41.18359375 133.796875 C31.22154875 136.33153504 31.22154875 136.33153504 27.58203125 135.34375 C25.75 134.25 25.75 134.25 23 132 C22.34 131.67 21.68 131.34 21 131 Z M72.5625 138.0625 C60.65376953 149.0047248 60.65376953 149.0047248 53.3515625 150.56640625 C50.44749914 152.33682361 50.34938893 153.23761591 49.41796875 156.4375 C48.985621 158.28661806 48.57633421 160.141245 48.1875 162 C47.97158203 162.90878906 47.75566406 163.81757813 47.53320312 164.75390625 C46.14442189 170.95272029 45.7988022 176.65364656 46 183 C48.97 183 51.94 183 55 183 C57.47021408 173.11914369 57.63716839 163.13273632 58 153 C58.59312988 152.7110083 59.18625977 152.4220166 59.79736328 152.12426758 C62.95073976 150.51472438 65.89931933 148.59863249 68.875 146.6875 C69.47441406 146.30916016 70.07382813 145.93082031 70.69140625 145.54101562 C74.72623378 142.95469993 78.37294197 140.13346756 82 137 C80.62514468 135.45833358 80.62514468 135.45833358 79 134 C75.89834592 134 74.76234044 135.95417292 72.5625 138.0625 Z M-3 140 C-3.99 141.485 -3.99 141.485 -5 143 C-4.10247708 145.54000712 -4.10247708 145.54000712 -2.61328125 148.296875 C0.57424224 155.47448134 0.39475275 161.53410388 -0.1875 169.25 C-0.25775391 170.48363281 -0.32800781 171.71726563 -0.40039062 172.98828125 C-0.57512743 175.99375421 -0.78398743 178.99721142 -1 182 C2.96 182 6.92 182 11 182 C12.70436098 173.47819511 11.73325897 166.41868642 10 158 C11.32 158.33 12.64 158.66 14 159 C12.73025028 154.58477891 12.73025028 154.58477891 10 151 C9.34 151.66 8.68 152.32 8 153 C6.72719706 151.58510266 5.4568417 150.16800334 4.1875 148.75 C3.47980469 147.96109375 2.77210937 147.1721875 2.04296875 146.359375 C0.25831065 144.2983167 -1.39759062 142.20394477 -3 140 Z M93 141 C92.67 141.99 92.34 142.98 92 144 C90.22167969 145.06616211 90.22167969 145.06616211 88 146 C77.39161176 150.41872788 77.39161176 150.41872788 69 158 C66.62509584 166.11042257 67.90878817 174.75528837 69 183 C75.27 183 81.54 183 88 183 C88.66 176.4 89.32 169.8 90 163 C90.99 162.67 91.98 162.34 93 162 C92.7834375 163.2684375 92.7834375 163.2684375 92.5625 164.5625 C91.54346733 170.78992186 90.7525665 176.69044585 91 183 C91.66 183 92.32 183 93 183 C93.54527344 181.92363281 94.09054688 180.84726563 94.65234375 179.73828125 C99.43485432 170.42677275 104.31956166 161.12104027 111 153 C111.66 153 112.32 153 113 153 C111.60631781 155.90579252 110.03666654 158.59672135 108.28515625 161.30078125 C107.76373047 162.11353516 107.24230469 162.92628906 106.70507812 163.76367188 C105.61650702 165.45283393 104.52538944 167.14035783 103.43164062 168.82617188 C100.47898577 173.43901244 97.9792487 177.88981433 96 183 C100.51336503 181.49554499 102.13429246 177.60411856 104.59570312 173.74804688 C106.71500756 170.5349079 108.28361494 168.27830101 112 167 C109.38016447 171.48193402 106.44170262 175.66958391 103.42578125 179.890625 C101.90666671 181.71374228 101.90666671 181.71374228 102 183 C105.77081636 183.0294985 109.54160231 183.04696364 113.3125 183.0625 C114.8912793 183.07506836 114.8912793 183.07506836 116.50195312 183.08789062 C123.39311686 183.10909421 130.15030513 182.75671682 137 182 C136.63181152 181.4531958 136.26362305 180.9063916 135.88427734 180.34301758 C134.88897036 178.86108747 133.89996708 177.37492068 132.9140625 175.88671875 C131.54382502 173.82017692 130.16230754 171.76109695 128.7734375 169.70703125 C124.37454087 163.11377228 120.8188601 156.90677523 118.265625 149.328125 C117.19064906 146.85791395 117.19064906 146.85791395 114.8671875 145.8046875 C111.21282712 144.77907682 107.56092822 143.78137579 103.875 142.875 C102.80185547 142.60236328 102.80185547 142.60236328 101.70703125 142.32421875 C98.73042786 141.58424071 96.07928917 141 93 141 Z M8 146 C9 148 9 148 9 148 Z M-24.625 150.5 C-25.33140625 150.73847656 -26.0378125 150.97695312 -26.765625 151.22265625 C-28.51132577 151.81242002 -30.25578285 152.40586277 -32 153 C-30.89736164 156.16720086 -29.79260621 159.33365947 -28.6875 162.5 C-28.37876953 163.386875 -28.07003906 164.27375 -27.75195312 165.1875 C-25.90158202 170.48540464 -23.99190371 175.75363208 -22 181 C-18.7 181 -15.4 181 -12 181 C-9.7318373 167.89731012 -8.71964289 159.99996805 -15 148 C-18.3683404 148 -21.46382246 149.42100029 -24.625 150.5 Z M35 154 C36 156 36 156 36 156 Z M34 156 C27.22112942 168.3752737 27.22112942 168.3752737 24 182 C26.70879335 183.35439668 29.00933268 183.06501451 32 183 C32.34611328 182.09121094 32.34611328 182.09121094 32.69921875 181.1640625 C34.49073975 176.56134056 36.39817666 172.12899639 38.6875 167.75 C40.53358575 164.15975962 41.67795195 161.07927534 42 157 C39.69 157.66 37.38 158.32 35 159 C34.67 158.01 34.34 157.02 34 156 Z M23 157 C24 159 24 159 24 159 Z M14 162 C14 168.6 14 175.2 14 182 C16.31 182 18.62 182 21 182 C23.97975719 173.4815981 24.06034727 168.56897236 21 160 C18.41196476 159.87620311 18.41196476 159.87620311 14 162 Z M-32 164 C-32.8655047 166.26708325 -33.71759315 168.53775079 -34.5625 170.8125 C-34.80935547 171.45509766 -35.05621094 172.09769531 -35.31054688 172.75976562 C-36.84788661 176.81514729 -36.84788661 176.81514729 -36 181 C-32.37 181 -28.74 181 -25 181 C-26.98 175.39 -28.96 169.78 -31 164 C-31.33 164 -31.66 164 -32 164 Z M-91 186 C-90.67 211.74 -90.34 237.48 -90 264 C-81.09820646 263.21426863 -81.09820646 263.21426863 -73 261 C-73.33 251.43 -73.66 241.86 -74 232 C-70.37 232 -66.74 232 -63 232 C-63 227.05 -63 222.1 -63 217 C-66.63 217 -70.26 217 -74 217 C-74 212.38 -74 207.76 -74 203 C-69.05 203 -64.1 203 -59 203 C-59 197.72 -59 192.44 -59 187 C-62.08315861 186.82939043 -65.16646007 186.66345412 -68.25 186.5 C-69.10335937 186.45230469 -69.95671875 186.40460938 -70.8359375 186.35546875 C-77.58704389 186.00279901 -84.21458504 186 -91 186 Z M164 190 C164 213.1 164 236.2 164 260 C173.42669884 262.35667471 183.33771438 262.11641308 193 262 C193 256.06 193 250.12 193 244 C188.71 244 184.42 244 180 244 C180 239.71 180 235.42 180 231 C181.485 231.495 181.485 231.495 183 232 C184.39439664 232.06665376 185.79169875 232.08538199 187.1875 232.0625 C188.445625 232.041875 189.70375 232.02125 191 232 C191 227.38 191 222.76 191 218 C187.04 218 183.08 218 179 218 C179 214.04 179 210.08 179 206 C183.58984375 206.04882812 183.58984375 206.04882812 188.1796875 206.09765625 C190.95177546 206.19744303 190.95177546 206.19744303 193 205 C193 199.39 193 193.78 193 188 C182.95095234 187.74559373 174.23141723 188.79630386 164 190 Z M-53.25 196.875 C-59.38827775 204.81865356 -59.253522 215.15680759 -59.3125 224.75 C-59.31813965 225.62479004 -59.3237793 226.49958008 -59.32958984 227.40087891 C-59.20955082 238.16573473 -57.21633407 246.64991378 -49.5625 254.5 C-43.33017785 257.12413564 -36.20949286 257.13196447 -29.67578125 255.375 C-25.61057795 253.39971683 -23.68163551 250.41322978 -21.82421875 246.48828125 C-19.34257031 238.99629045 -18.68448389 231.92989339 -18.75 224.0625 C-18.74226563 223.13759766 -18.73453125 222.21269531 -18.7265625 221.25976562 C-18.75347362 211.65922358 -19.64272532 202.59950077 -26 195 C-34.41438814 188.63790165 -45.74199471 189.42247258 -53.25 196.875 Z M-15 192 C-15.14535789 197.91830822 -15.28760858 203.836681 -15.42724609 209.75512695 C-15.47493969 211.75937814 -15.52341438 213.76361092 -15.57275391 215.76782227 C-15.89414741 228.84984978 -16.05079564 241.91377336 -16 255 C-10.39 255 -4.78 255 1 255 C0.505 245.1 0.505 245.1 0 235 C0.99 235 1.98 235 3 235 C3.09796875 235.57105469 3.1959375 236.14210937 3.296875 236.73046875 C4.64131995 244.02060561 6.74658329 250.93929431 9 258 C16.92 257.505 16.92 257.505 25 257 C24.25023558 253.25117791 23.40819133 250.04867059 22.15234375 246.48046875 C21.79462891 245.45888672 21.43691406 244.43730469 21.06835938 243.38476562 C20.69517578 242.32966797 20.32199219 241.27457031 19.9375 240.1875 C19.37192383 238.57584961 19.37192383 238.57584961 18.79492188 236.93164062 C17.86625342 234.28669882 16.93451811 231.64287946 16 229 C16.62519531 228.71769531 17.25039062 228.43539062 17.89453125 228.14453125 C20.74630897 226.594307 21.58816313 224.89090407 23 222 C25.10658737 214.72269818 24.2096562 207.76533482 21 201 C18.24591543 196.93444659 15.57047535 193.92435806 11 192 C8.44240297 191.62107141 8.44240297 191.62107141 5.68359375 191.55078125 C4.16668945 191.48600586 4.16668945 191.48600586 2.61914062 191.41992188 C1.04422852 191.36674805 1.04422852 191.36674805 -0.5625 191.3125 C-1.61630859 191.26544922 -2.67011719 191.21839844 -3.75585938 191.16992188 C-9.4667806 190.85891775 -9.4667806 190.85891775 -15 192 Z M26 191 C26.33 196.28 26.66 201.56 27 207 C29.31 207.33 31.62 207.66 34 208 C34 223.51 34 239.02 34 255 C39.61 255 45.22 255 51 255 C51 240.15 51 225.3 51 210 C53.64 210 56.28 210 59 210 C59 204.72 59 199.44 59 194 C47.98859247 192.38067536 37.1163724 191.48387417 26 191 Z M87 190 C87.46194477 198.66883595 87.93269455 207.3373359 88.5 216 C88.5721875 217.11375 88.644375 218.2275 88.71875 219.375 C88.84292678 221.97700561 88.84292678 221.97700561 90 224 C89.34 224 88.68 224 88 224 C87.83201904 223.34153076 87.66403809 222.68306152 87.4909668 222.00463867 C85.63665079 214.95053997 83.35680272 208.14484999 80.8125 201.3125 C80.44447266 200.31283203 80.07644531 199.31316406 79.69726562 198.28320312 C78.80226758 195.8539227 77.90314552 193.42626047 77 191 C75.62476865 191.14363527 74.24982598 191.29003517 72.875 191.4375 C72.10929688 191.51871094 71.34359375 191.59992188 70.5546875 191.68359375 C67.69143782 192.03821642 64.84587143 192.5256881 62 193 C62 213.13 62 233.26 62 254 C66.95 254 71.9 254 77 254 C77.10371911 244.27345227 77.04518445 234.68662016 76 225 C76.66 225 77.32 225 78 225 C78.24621094 226.258125 78.49242187 227.51625 78.74609375 228.8125 C79.99301108 234.41978286 81.97474909 239.65924185 84.0625 245 C84.42666016 245.95261719 84.79082031 246.90523437 85.16601562 247.88671875 C86.56377227 252.25391772 86.56377227 252.25391772 89 256 C90.64340867 256.09854655 92.2911461 256.12972411 93.9375 256.125 C94.83339844 256.12757813 95.72929687 256.13015625 96.65234375 256.1328125 C99.02155555 256.15421413 99.02155555 256.15421413 101 255 C101 233.55 101 212.1 101 190 C96.38 190 91.76 190 87 190 Z M112.8125 193.5 C110.90404297 193.63921875 110.90404297 193.63921875 108.95703125 193.78125 C107.49330078 193.88953125 107.49330078 193.88953125 106 194 C105.80475895 215.34635529 106.4096753 236.66397871 107 258 C112.28 258 117.56 258 123 258 C123 236.55 123 215.1 123 193 C119.58224994 193 116.22118827 193.24982104 112.8125 193.5 Z M128 196 C128 201.28 128 206.56 128 212 C130.64 212 133.28 212 136 212 C136 227.51 136 243.02 136 259 C140.95 259 145.9 259 151 259 C151 242.83 151 226.66 151 210 C154.3 210 157.6 210 161 210 C161 205.05 161 200.1 161 195 C156.81245636 194.9729448 152.62508888 194.95313367 148.4375 194.9375 C147.25607422 194.92912109 146.07464844 194.92074219 144.85742188 194.91210938 C143.70693359 194.90888672 142.55644531 194.90566406 141.37109375 194.90234375 C139.7921936 194.89448853 139.7921936 194.89448853 138.18139648 194.88647461 C134.76953211 195.00822405 131.37972316 195.51718241 128 196 Z " fill="#2A2A2A" transform="translate(99,0)"/>
<path d="M0 0 C1.32 0.66 2.64 1.32 4 2 C4.02467759 7.37515933 4.04284928 12.75028585 4.05493164 18.12548828 C4.05996737 19.95492121 4.06679627 21.78435009 4.07543945 23.61376953 C4.08753824 26.23991898 4.09323583 28.86601532 4.09765625 31.4921875 C4.10281754 32.31306854 4.10797882 33.13394958 4.11329651 33.97970581 C4.11387171 39.77225659 4.11387171 39.77225659 3 42 C1.68 42 0.36 42 -1 42 C-2.26459707 38.20620878 -2.16238301 34.63675941 -2.16796875 30.68359375 C-2.17129715 29.87132828 -2.17462555 29.05906281 -2.17805481 28.22218323 C-2.18311405 26.50660773 -2.18546344 24.7910224 -2.18530273 23.07543945 C-2.18749458 20.44400999 -2.20567522 17.81299621 -2.22460938 15.18164062 C-2.22754238 13.51562644 -2.2295278 11.84961025 -2.23046875 10.18359375 C-2.23765427 9.39399765 -2.24483978 8.60440155 -2.25224304 7.7908783 C-2.2288314 2.2288314 -2.2288314 2.2288314 0 0 Z " fill="#2A2A2A" transform="translate(59,203)"/>
<path d="M0 0 C2.475 0.495 2.475 0.495 5 1 C7.29783606 4.44675409 7.29754883 5.93328112 7.3125 10 C7.32925781 11.051875 7.34601563 12.10375 7.36328125 13.1875 C7 16 7 16 5.73046875 17.875 C4 19 4 19 0 19 C0 12.73 0 6.46 0 0 Z " fill="#2A2A2A" transform="translate(99,205)"/>
<path d="M0 0 C0.66 0 1.32 0 2 0 C2.33 0.66 2.66 1.32 3 2 C4.98 1.34 6.96 0.68 9 0 C8.3125 1.9375 8.3125 1.9375 7 4 C4.5 4.875 4.5 4.875 2 5 C1.34 4.34 0.68 3.68 0 3 C0 2.01 0 1.02 0 0 Z " fill="#292929" transform="translate(129,99)"/>
</svg>
