<svg xmlns="http://www.w3.org/2000/svg" viewBox="0 0 200 200">
  <!-- Background -->
  <rect x="20" y="20" width="500" height="500" rx="20" fill="#001E36"/>
  <!-- "Ps" Text -->
  <path d="M60 65h25c12 0 20 7 20 18 0 12-8 19-21 19H73v23H60V65zm13 27h10c7 0 11-3 11-9s-4-8-11-8H73v17z" fill="#31A8FF"/>
  <path d="M115 125c-5 0-10-1-14-3l2-10c4 2 8 3 12 3 6 0 9-2 9-5 0-3-2-4-9-6-12-3-17-8-17-16 0-9 8-16 21-16 5 0 10 1 13 2l-2 10c-3-1-7-2-11-2-6 0-8 2-8 5 0 3 2 4 9 6 12 3 17 8 17 16 0 9-8 16-22 16z" fill="#31A8FF"/>
</svg>
