<?xml version="1.0" encoding="UTF-8"?>
<svg version="1.1" xmlns="http://www.w3.org/2000/svg" width="1024" height="1024">
<path d="M0 0 C1.08368866 0.14918884 1.08368866 0.14918884 2.18927002 0.3013916 C53.62271232 7.42300848 103.88494377 21.02550769 151 43 C152.05977051 43.49145508 153.11954102 43.98291016 154.21142578 44.48925781 C201.23975829 66.38746325 249.17266618 95.81851604 285.44921875 133.4453125 C287.12396958 135.12428184 288.88192726 136.65037291 290.6875 138.1875 C298.38198861 144.83410106 305.59299461 152.15210746 312.17578125 159.8984375 C314.01604464 162.01848398 315.92202652 164.06805015 317.84130859 166.11645508 C323.29644881 171.95827681 328.30529694 178.04277242 333.18359375 184.37109375 C335.07937995 186.82997161 337.00829251 189.25571363 338.97265625 191.66015625 C346.15611601 200.4589074 352.72590763 209.53326822 359 219 C359.44166504 219.66193359 359.88333008 220.32386719 360.33837891 221.00585938 C404.91892152 287.99874488 432.51348399 363.26309234 443 443 C443.16516113 444.21461914 443.33032227 445.42923828 443.50048828 446.68066406 C448.84100482 487.84737584 448.66665827 532.90152429 443 574 C442.82570914 575.33483711 442.65239996 576.66980269 442.47998047 578.00488281 C435.7973686 629.24580295 421.81546091 679.11868032 400 726 C399.29472168 727.53382324 399.29472168 727.53382324 398.57519531 729.09863281 C388.33017744 751.31582458 376.72155556 772.7318234 363 793 C362.33387695 793.99386719 362.33387695 793.99386719 361.65429688 795.0078125 C346.32393869 817.85997233 329.41842615 841.29829369 309.5546875 860.44921875 C307.87571816 862.12396958 306.34962709 863.88192726 304.8125 865.6875 C298.16589894 873.38198861 290.84789254 880.59299461 283.1015625 887.17578125 C280.98151602 889.01604464 278.93194985 890.92202652 276.88354492 892.84130859 C271.04172319 898.29644881 264.95722758 903.30529694 258.62890625 908.18359375 C256.17002839 910.07937995 253.74428637 912.00829251 251.33984375 913.97265625 C242.5410926 921.15611601 233.46673178 927.72590763 224 934 C223.33806641 934.44166504 222.67613281 934.88333008 221.99414062 935.33837891 C155.00125512 979.91892152 79.73690766 1007.51348399 0 1018 C-1.82192871 1018.2477417 -1.82192871 1018.2477417 -3.68066406 1018.50048828 C-44.80427676 1023.83541362 -89.94979598 1023.74187488 -131 1018 C-132.92585937 1017.74259033 -132.92585937 1017.74259033 -134.890625 1017.47998047 C-186.20477819 1010.55510299 -236.00454567 996.86857162 -283 975 C-284.02254883 974.52981445 -285.04509766 974.05962891 -286.09863281 973.57519531 C-309.44149804 962.81109543 -331.74732554 950.46828107 -353 936 C-353.84965332 935.42217773 -354.69930664 934.84435547 -355.57470703 934.24902344 C-366.36333039 926.87676392 -376.85461476 919.23430762 -387 911 C-387.92683594 910.25492188 -388.85367188 909.50984375 -389.80859375 908.7421875 C-409.52226627 892.77668784 -409.52226627 892.77668784 -417.44921875 884.5546875 C-419.12396958 882.87571816 -420.88192726 881.34962709 -422.6875 879.8125 C-430.38198861 873.16589894 -437.59299461 865.84789254 -444.17578125 858.1015625 C-446.01604464 855.98151602 -447.92202652 853.93194985 -449.84130859 851.88354492 C-455.29644881 846.04172319 -460.30529694 839.95722758 -465.18359375 833.62890625 C-467.07937995 831.17002839 -469.00829251 828.74428637 -470.97265625 826.33984375 C-478.15611601 817.5410926 -484.72590763 808.46673178 -491 799 C-491.44166504 798.33806641 -491.88333008 797.67613281 -492.33837891 796.99414062 C-534.50388952 733.63041602 -561.91424919 662.64287425 -573.8125 582.9375 C-573.91195923 582.26447845 -574.01141846 581.59145691 -574.1138916 580.89804077 C-577.5970052 557.00727497 -578.37790282 533.10617827 -578.3125 509 C-578.31027711 507.54984545 -578.30810061 506.09969082 -578.30596924 504.64953613 C-578.26385312 483.96537568 -577.94824468 463.51421231 -575 443 C-574.79392819 441.52490474 -574.58787433 440.04980696 -574.38183594 438.57470703 C-567.2046821 387.91430147 -553.65097413 338.42140758 -532 292 C-531.50854492 290.94022949 -531.01708984 289.88045898 -530.51074219 288.78857422 C-511.93568335 248.89699288 -488.467079 210.66139881 -459.34326172 177.55371094 C-457.24747229 175.12957355 -455.25371432 172.62536146 -453.25 170.125 C-450.00031312 166.11861708 -446.57404621 162.46176947 -442.875 158.87109375 C-441.105232 157.10501276 -439.4887438 155.28325204 -437.875 153.375 C-430.59054396 144.91833265 -422.48646808 136.89394764 -413.96484375 129.6875 C-411.5404227 127.60529345 -409.21649968 125.42497793 -406.875 123.25 C-401.67200285 118.50566927 -396.23320166 114.15567275 -390.6640625 109.8515625 C-388.19371753 107.94103916 -385.75443952 105.99916959 -383.3359375 104.0234375 C-374.53791843 96.84206896 -365.46518026 90.2730641 -356 84 C-355.00709961 83.33750244 -355.00709961 83.33750244 -353.99414062 82.66162109 C-287.81726974 38.62409696 -213.63419114 11.1461558 -131 0 C-129.81921875 -0.16516113 -128.6384375 -0.33032227 -127.421875 -0.50048828 C-86.3974861 -6.01029162 -40.96310291 -5.7157818 0 0 Z M-259.375 255.5 C-261.20987091 257.77463336 -262.35708278 259.71416556 -263.6875 262.375 C-264.120625 263.24125 -264.55375 264.1075 -265 265 C-265.99 265.33 -266.98 265.66 -268 266 C-268 259.07 -268 252.14 -268 245 C-269.753125 244.979375 -271.50625 244.95875 -273.3125 244.9375 C-274.29863281 244.92589844 -275.28476562 244.91429687 -276.30078125 244.90234375 C-281.21245178 245.0320077 -286.1067965 245.55516332 -291 246 C-291 287.58 -291 329.16 -291 372 C-283.08 372 -275.16 372 -267 372 C-266.98541748 369.56834473 -266.97083496 367.13668945 -266.95581055 364.63134766 C-266.90531974 356.5686742 -266.83869953 348.50619094 -266.76428509 340.44370461 C-266.71968741 335.55867815 -266.68040824 330.67373306 -266.65356445 325.78857422 C-266.6274253 321.0681115 -266.5869488 316.34796368 -266.53681374 311.62769699 C-266.52021648 309.83296013 -266.50865797 308.03816889 -266.50238609 306.24336624 C-266.45638218 294.2813862 -266.30897561 283.98893334 -259 274 C-258.505 272.515 -258.505 272.515 -258 271 C-256.265625 269.9453125 -256.265625 269.9453125 -254 269 C-252.75476563 268.47019531 -252.75476563 268.47019531 -251.484375 267.9296875 C-241.90475322 264.23469053 -234.62656126 264.01046874 -225 268 C-219.32839687 271.57100938 -217.08309652 275.82009843 -215 282 C-214.48370794 285.10967645 -214.43453402 288.13571743 -214.45410156 291.28344727 C-214.44376389 292.16258286 -214.43342621 293.04171844 -214.42277527 293.94749451 C-214.39354375 296.82065643 -214.39185228 299.69310788 -214.390625 302.56640625 C-214.37563007 304.57137886 -214.35890017 306.57633918 -214.34051514 308.58128357 C-214.29697698 313.83371576 -214.27687255 319.08598134 -214.26177979 324.33856201 C-214.24215983 329.70822953 -214.20019535 335.07771841 -214.16015625 340.44726562 C-214.08500056 350.96481871 -214.03668801 361.48224231 -214 372 C-206.08 372 -198.16 372 -190 372 C-189.9906543 369.41687988 -189.98130859 366.83375977 -189.97167969 364.17236328 C-189.93782048 355.61074793 -189.88222193 347.04937134 -189.81609726 338.48794746 C-189.77669043 333.30022087 -189.74446865 328.11266229 -189.72900391 322.92480469 C-189.71379256 317.91251595 -189.6792677 312.90068934 -189.63169098 307.88860703 C-189.61692327 305.98222764 -189.60896165 304.07578225 -189.60811615 302.16934586 C-189.58782393 279.34452455 -189.58782393 279.34452455 -181.375 271.0625 C-175.24848661 266.24312768 -168.0321686 264.40920619 -160.296875 264.7109375 C-153.92171928 265.51325302 -147.39365031 267.08944965 -143 272 C-138.08636623 280.3063809 -137.86856816 289.12057599 -137.79467773 298.54907227 C-137.78477814 299.35017929 -137.77487854 300.15128632 -137.76467896 300.97666931 C-137.73342413 303.58988626 -137.70845113 306.20312131 -137.68359375 308.81640625 C-137.662993 310.64200782 -137.64199577 312.46760496 -137.62062073 314.29319763 C-137.56572211 319.07211694 -137.51617231 323.85107696 -137.46777344 328.63006592 C-137.41732153 333.51708553 -137.36175977 338.40404682 -137.30664062 343.29101562 C-137.19945369 352.86062887 -137.09839584 362.43029232 -137 372 C-129.08 372 -121.16 372 -113 372 C-112.95472091 360.04701599 -112.91806752 348.09408944 -112.89637566 336.14103889 C-112.88596191 330.59008713 -112.87184684 325.03919735 -112.84912109 319.48828125 C-112.82730666 314.12608103 -112.81541327 308.76394025 -112.81024551 303.40169907 C-112.80656516 301.361297 -112.79937853 299.32089799 -112.78853989 297.28052139 C-112.77391058 294.41106519 -112.77202681 291.54185109 -112.77294922 288.67236328 C-112.76216339 287.4218644 -112.76216339 287.4218644 -112.75115967 286.14610291 C-112.79788477 272.61353708 -116.3694573 261.65253024 -126 252 C-133.75956198 244.45015591 -144.57359938 242.6968178 -154.98706055 242.68530273 C-167.05062576 242.9311417 -177.34033282 247.38186921 -185.87890625 255.8671875 C-188.44660819 258.75043835 -190.35230503 261.49864819 -192 265 C-192.99 265 -193.98 265 -195 265 C-196.32421875 263.05859375 -196.32421875 263.05859375 -197.6875 260.4375 C-202.47959399 252.09264667 -208.87407172 247.04743745 -218 244 C-233.25642914 240.19856417 -248.76973427 243.69315244 -259.375 255.5 Z M-70.609375 258.9453125 C-74.60377046 264.847144 -77.70797618 270.98172662 -79 278 C-75.10517784 278.23282073 -71.21214146 278.37456639 -67.3125 278.5 C-66.20970703 278.56703125 -65.10691406 278.6340625 -63.97070312 278.703125 C-60.79552904 278.77986637 -58.08729257 278.75810279 -55 278 C-53.05711799 276.10595021 -52.06275979 274.43249766 -50.95996094 271.96435547 C-49.28578992 268.53852128 -46.43309806 267.20315914 -43 266 C-33.07505786 263.33294506 -21.33111705 262.72520353 -11.71484375 266.93359375 C-7.08452134 269.81304254 -4.56359438 273.5397782 -2.625 278.5625 C-1.84856329 282.4576082 -1.93792137 286.31626724 -1.9609375 290.27734375 C-1.96657715 291.53667725 -1.9722168 292.79601074 -1.97802734 294.09350586 C-1.98890381 295.53222046 -1.98890381 295.53222046 -2 297 C-3.22404541 297.06993164 -4.44809082 297.13986328 -5.70922852 297.21191406 C-10.32304369 297.47967336 -14.93539762 297.76799133 -19.54760742 298.06201172 C-21.53034707 298.18564193 -23.51342642 298.30395888 -25.49682617 298.41650391 C-43.59376072 299.44956963 -63.22734998 300.76584594 -76.3125 314.90625 C-82.51975709 322.60784675 -84.43560976 331.84851277 -83.875 341.625 C-82.69763221 351.13867305 -78.10171169 359.99093837 -70.51953125 365.94921875 C-57.64413172 374.61151152 -44.00180176 375.77804471 -28.8359375 373.53125 C-18.58240946 370.79697586 -10.14777263 364.58627462 -4 356 C-4 355.34 -4 354.68 -4 354 C-2.68 354 -1.36 354 0 354 C0 359.94 0 365.88 0 372 C7.59 372 15.18 372 23 372 C23.06794918 360.06429047 23.122916 348.12871075 23.15543652 336.19285107 C23.17104973 330.64973413 23.19220831 325.10675713 23.22631836 319.5637207 C23.25906713 314.20799203 23.27688565 308.85239743 23.28463173 303.49657631 C23.29014747 301.45977991 23.30091797 299.42299032 23.31719017 297.38625145 C23.43575356 281.92207226 23.03524655 268.16465237 12.21875 255.99609375 C1.74825206 246.06199427 -12.95979209 243.06435344 -27 242.625 C-42.08575199 243.15503993 -60.16910568 247.02142596 -70.609375 258.9453125 Z M69 260 C55.94074855 275.99483948 51.6773343 295.69542224 53 316 C54.89872831 334.56675937 61.1507119 351.86959564 76 364 C91.26506249 374.17670832 108.51516536 376.97739651 126.4375 373.9375 C140.14019657 370.90030437 152.8009671 363.94485305 160.875 352.1875 C164.0773307 346.53498745 167 339.53714419 167 333 C159.08 333 151.16 333 143 333 C142.195625 334.85625 141.39125 336.7125 140.5625 338.625 C136.71303089 346.30582308 132.21750705 349.42737025 124.3125 352.375 C113.34237956 354.47705901 103.25696782 353.6689094 93.8203125 347.59765625 C84.47102897 340.38283179 80.83617416 328.8622468 79.375 317.5625 C77.98199489 302.67000899 79.26911132 286.28231208 88.75 274.0625 C94.05670317 268.4395943 100.86944369 265.28089625 108.50390625 264.76171875 C118.67452823 264.48188547 127.96327712 265.00876313 135.9375 272.125 C139 276 139 276 143 286 C150.92 286 158.84 286 167 286 C165.21503562 273.50524936 160.33330587 263.33162328 150.68359375 255 C127.55190244 237.77190246 89.15127631 237.53405006 69 260 Z M-335.46875 485.16015625 C-370.76097518 524.75498296 -382.58059639 580.0602426 -379.69140625 631.91015625 C-376.6925054 679.38798147 -363.15230561 722.11357379 -330 757 C-329.43023437 757.63421875 -328.86046875 758.2684375 -328.2734375 758.921875 C-303.26352902 785.8556226 -262.97090902 797.69692179 -227.34375 799.10498047 C-181.41699045 800.41787257 -139.4620488 787.57853789 -105.6796875 755.71875 C-101.42991567 751.40702815 -97.64364121 746.829943 -94 742 C-93.39671875 741.20078125 -92.7934375 740.4015625 -92.171875 739.578125 C-75.56755561 716.69109016 -66.23607647 690.59669813 -61 663 C-60.83338867 662.1229541 -60.66677734 661.2459082 -60.49511719 660.34228516 C-51.12625881 607.99888073 -58.61046714 545.96330985 -89.01953125 501.4453125 C-113.96415089 466.61674455 -148.90652821 446.87103919 -190.78125 439.76171875 C-243.90661674 431.55519905 -297.67559794 446.32401136 -335.46875 485.16015625 Z M12 470 C11.24074219 470.65613281 10.48148438 471.31226563 9.69921875 471.98828125 C-6.4561382 487.10762333 -16.42604804 509.15983798 -17.203125 531.2421875 C-17.57776103 553.23664212 -13.44236245 572.12987714 0 590 C0.77923828 591.05574219 0.77923828 591.05574219 1.57421875 592.1328125 C25.46414987 621.85983007 68.01197728 629.86915898 103.06887817 637.28967285 C166.3546713 650.70479739 166.3546713 650.70479739 182.75390625 673.88671875 C190.01437744 686.19993164 190.85451496 700.86904972 188.31640625 714.734375 C186.29406356 721.21258477 183.11382357 726.63640725 179 732 C178.58363281 732.59167969 178.16726563 733.18335938 177.73828125 733.79296875 C166.16041743 748.98674199 144.17392428 756.39981505 126 759 C97.41880571 762.07743057 64.89026211 759.38691636 41.4609375 741.09375 C27.91471232 729.56870763 21.85165447 716.98079065 17 700 C3.14 700 -10.72 700 -25 700 C-25 705.81073594 -24.76407035 710.48642161 -23.4375 716 C-23.26259033 716.72912598 -23.08768066 717.45825195 -22.9074707 718.20947266 C-16.68592656 742.55555734 -0.88027383 763.80173826 20.375 777.1875 C22.57229386 778.47732679 24.78031549 779.74909866 27 781 C27.91007813 781.52335937 28.82015625 782.04671875 29.7578125 782.5859375 C67.96921749 803.16130942 118.33584735 803.97130688 159.3046875 791.7578125 C174.43837281 786.92780099 189.1306157 779.62860054 201 769 C201.87205078 768.33871094 201.87205078 768.33871094 202.76171875 767.6640625 C219.82356879 754.53956247 229.4255505 732.46242906 233.3125 711.875 C236.21008416 689.44658413 234.4904381 664.90724881 221 646 C219.68210182 644.32110157 218.35036827 642.65289476 217 641 C216.54238281 640.37996094 216.08476563 639.75992188 215.61328125 639.12109375 C205.12450948 625.54553629 187.48180785 616.88410102 171.875 610.8125 C171.12025391 610.51585449 170.36550781 610.21920898 169.58789062 609.91357422 C149.26451847 602.36854291 127.61619957 598.31264447 106.50244141 593.67724609 C48.61990625 580.93475994 48.61990625 580.93475994 35.0625 560.5 C27.84376327 548.23664019 25.67648002 534.01038976 29.1875 520.125 C34.25743365 504.44576074 43.65462357 494.70931301 58 487 C62.24660826 484.93706175 66.48712522 483.37921566 71 482 C72.84464844 481.4121875 72.84464844 481.4121875 74.7265625 480.8125 C99.85702808 473.63713869 129.56161956 476.37204217 152.63671875 488.37109375 C167.44667352 496.73996559 176.63834123 508.91502369 182 525 C182.99 529.62 183.98 534.24 185 539 C199.19 539 213.38 539 228 539 C226.78964537 524.99519275 226.78964537 524.99519275 223.375 511.8125 C223.11702637 511.07966797 222.85905273 510.34683594 222.59326172 509.59179688 C218.3116101 497.90124601 212.4246133 487.23044588 204 478 C203.56703613 477.5246582 203.13407227 477.04931641 202.68798828 476.55957031 C178.11021348 449.9201026 144.0440594 439.880336 108.8046875 437.8125 C73.75145317 437.01356588 38.68872392 446.93490315 12 470 Z " fill="#1C1C1E" transform="translate(578,3)"/>
<path d="M0 0 C2.15267145 -0.00960264 4.30434307 -0.04063747 6.45678711 -0.07226562 C19.66862004 -0.17468954 32.41108296 1.59803219 44.81420898 6.36523438 C45.60593506 6.66598877 46.39766113 6.96674316 47.21337891 7.27661133 C74.44284681 18.03538491 94.07422687 39.50493796 105.93920898 65.92773438 C112.14802351 80.38054409 116.20014297 95.6577435 118.25170898 111.24023438 C118.39310303 112.24751587 118.39310303 112.24751587 118.53735352 113.27514648 C119.63446337 122.31992421 119.49555641 131.45578365 119.50170898 140.55273438 C119.50238373 141.4472934 119.50305847 142.34185242 119.50375366 143.26351929 C119.48793273 156.45920955 119.15742942 169.31343166 116.25170898 182.24023438 C116.07478516 183.04074219 115.89786133 183.84125 115.71557617 184.66601562 C110.70389845 206.65161391 102.5818852 226.65204296 88.25170898 244.24023438 C87.6394043 245.01753906 87.02709961 245.79484375 86.39624023 246.59570312 C70.68775758 265.51956816 45.49149393 278.58609973 21.05932617 281.04541016 C4.4114488 282.20062808 -13.64883038 282.97853717 -29.74829102 278.24023438 C-30.41747559 278.046875 -31.08666016 277.85351562 -31.77612305 277.65429688 C-60.94252736 268.99854693 -82.29559674 249.90218441 -96.87719727 223.42382812 C-119.62616628 180.72009179 -119.44596085 126.6750617 -106.59204102 81.02148438 C-97.73389996 52.53178746 -79.37633467 26.44805466 -52.74829102 12.24023438 C-35.93458319 3.63777114 -18.88119243 0.05065943 0 0 Z " fill="#1C1C1E" transform="translate(356.748291015625,480.759765625)"/>
<path d="M0 0 C1.02860963 22.26368402 1.02860963 22.26368402 -6.796875 31.0078125 C-15.417837 39.24945217 -25.09637616 41.32378845 -36.703125 41.21875 C-43.45681201 40.77063807 -49.1432434 38.8567566 -54 34 C-57.38637895 29.76702631 -58.12933054 25.31117403 -58 20 C-57.17695988 15.07774066 -55.75331217 11.82505619 -52.375 8.125 C-45.35347443 3.70403945 -38.03831891 2.49868697 -29.875 1.875 C-28.51000366 1.75825928 -28.51000366 1.75825928 -27.11743164 1.63916016 C-24.41249554 1.4123421 -21.70684484 1.20264607 -19 1 C-18.22027832 0.94070313 -17.44055664 0.88140625 -16.63720703 0.8203125 C-11.09077102 0.40590234 -5.56473177 0 0 0 Z " fill="#1C1C1E" transform="translate(576,317)"/>
</svg>
